<svg width="16" height="16" viewBox="0 0 16 16" fill="none" xmlns="http://www.w3.org/2000/svg">
<path opacity="0.5" d="M5.64295 11.2999L10.8284 6.11447C11.0887 5.85412 11.0887 5.43201 10.8284 5.17166C10.5681 4.91131 10.1459 4.91131 9.88559 5.17166L4.70014 10.3571C4.43979 10.6175 4.43979 11.0396 4.70014 11.2999C4.96049 11.5603 5.3826 11.5603 5.64295 11.2999Z" fill="#1976D2"/>
<path d="M9.88563 6.64774V10.5928C9.88563 10.9833 10.2022 11.2998 10.5928 11.2998C10.9833 11.2998 11.2998 10.9833 11.2998 10.5928V5.36686C11.2998 4.99868 11.0014 4.7002 10.6332 4.7002H5.4073C5.01678 4.7002 4.7002 5.01678 4.7002 5.4073C4.7002 5.79783 5.01678 6.11441 5.4073 6.11441H9.3523C9.6469 6.11441 9.88563 6.3532 9.88563 6.64774Z" fill="#1976D2"/>
</svg>
