<svg width="16" height="16" viewBox="0 0 16 16" fill="none" xmlns="http://www.w3.org/2000/svg">
<path opacity="0.3" d="M12.6667 14.6666H3.33341C2.93341 14.6666 2.66675 14.3999 2.66675 13.9999V1.99992C2.66675 1.59992 2.93341 1.33325 3.33341 1.33325H9.33341L13.3334 5.33325V13.9999C13.3334 14.3999 13.0667 14.6666 12.6667 14.6666ZM8.33341 11.9999C8.33341 11.5999 8.40008 11.6666 8.00008 11.6666H5.66675C5.26675 11.6666 5.33341 11.5999 5.33341 11.9999C5.33341 12.3999 5.26675 12.3333 5.66675 12.3333L8.00008 11.9999C8.40008 11.9999 8.33341 12.3999 8.33341 11.9999ZM11.0001 8.66659C11.0001 8.26659 11.0667 8.33325 10.6667 8.33325H5.66675C5.26675 8.33325 5.33341 8.26659 5.33341 8.66659C5.33341 9.06659 5.26675 8.99992 5.66675 8.99992H10.3334C10.7334 8.99992 11.0001 9.06659 11.0001 8.66659ZM8.33341 5.33325C8.33341 4.93325 8.40008 4.99992 8.00008 4.99992H5.33341C4.93341 4.99992 5.00008 4.93325 5.00008 5.33325C5.00008 5.73325 4.93341 5.66659 5.33341 5.66659H8.00008C8.40008 5.66659 8.33341 5.73325 8.33341 5.33325Z" fill="#1976D2"/>
<path d="M8.00008 11.3333H5.33341C4.96522 11.3333 4.66675 11.6317 4.66675 11.9999C4.66675 12.3681 4.96522 12.6666 5.33341 12.6666H8.00008C8.36827 12.6666 8.66675 12.3681 8.66675 11.9999C8.66675 11.6317 8.36827 11.3333 8.00008 11.3333Z" fill="#1976D2"/>
<path d="M10.6667 8H5.33341C4.96522 8 4.66675 8.29848 4.66675 8.66667C4.66675 9.03486 4.96522 9.33333 5.33341 9.33333H10.6667C11.0349 9.33333 11.3334 9.03486 11.3334 8.66667C11.3334 8.29848 11.0349 8 10.6667 8Z" fill="#1976D2"/>
<path d="M8.00008 4.66675H5.33341C4.96522 4.66675 4.66675 4.96522 4.66675 5.33341C4.66675 5.7016 4.96522 6.00008 5.33341 6.00008H8.00008C8.36827 6.00008 8.66675 5.7016 8.66675 5.33341C8.66675 4.96522 8.36827 4.66675 8.00008 4.66675Z" fill="#1976D2"/>
<path d="M9.99992 5.33325H13.3333L9.33325 1.33325V4.66659C9.33325 5.06659 9.59992 5.33325 9.99992 5.33325Z" fill="#1976D2"/>
</svg>
