<svg width="30" height="30" viewBox="0 0 30 30" fill="none" xmlns="http://www.w3.org/2000/svg">
<path opacity="0.5" d="M17.8319 14.293L23.0623 9.06264C23.58 8.54488 23.58 7.7054 23.0623 7.18764C22.5445 6.66988 21.705 6.66988 21.1873 7.18764L14.2587 14.1163C13.7705 14.6044 13.7705 15.3959 14.2587 15.884L21.1873 22.8126C21.705 23.3304 22.5445 23.3304 23.0623 22.8126C23.58 22.2949 23.58 21.4554 23.0623 20.9376L17.8319 15.7073C17.4414 15.3168 17.4414 14.6835 17.8319 14.293Z" fill="white"/>
<path d="M10.3319 14.293L15.5623 9.06264C16.08 8.54488 16.08 7.7054 15.5623 7.18764C15.0445 6.66988 14.205 6.66988 13.6873 7.18764L6.7587 14.1163C6.27054 14.6044 6.27054 15.3959 6.7587 15.884L13.6873 22.8126C14.205 23.3304 15.0445 23.3304 15.5623 22.8126C16.08 22.2949 16.08 21.4554 15.5623 20.9376L10.3319 15.7073C9.9414 15.3168 9.9414 14.6835 10.3319 14.293Z" fill="white"/>
</svg>
