<svg width="13" height="12" viewBox="0 0 13 12" fill="none" xmlns="http://www.w3.org/2000/svg">
<path d="M11.75 3C11.75 3.19191 11.6768 3.38391 11.5303 3.53016L5.53027 9.53016C5.38438 9.67734 5.19219 9.75 5 9.75C4.80781 9.75 4.61609 9.67676 4.46984 9.53027L1.46984 6.53027C1.32336 6.38438 1.25 6.19219 1.25 6C1.25 5.57156 1.60039 5.25 2 5.25C2.19191 5.25 2.38391 5.32324 2.53016 5.46973L5 7.94062L10.4703 2.47031C10.6156 2.32336 10.8078 2.25 11 2.25C11.4008 2.25 11.75 2.57109 11.75 3Z" fill="black"/>
</svg>
