<svg width="10" height="10" viewBox="0 0 10 10" fill="none" xmlns="http://www.w3.org/2000/svg">
<path opacity="0.3" fill-rule="evenodd" clip-rule="evenodd" d="M0.833252 1.92999C0.833252 1.32441 1.32417 0.833496 1.92974 0.833496H5.61242C5.83971 0.833496 5.94909 1.11233 5.78234 1.26685L5.18975 1.81608C4.95863 2.03028 4.65517 2.14928 4.34004 2.14928H2.98238C2.52214 2.14928 2.14904 2.52238 2.14904 2.98262V7.0177C2.14904 7.47795 2.52214 7.85104 2.98238 7.85104H7.01746C7.47771 7.85104 7.85079 7.47795 7.85079 7.0177V5.73008C7.85079 5.38641 7.99229 5.05795 8.24196 4.82183L8.74484 4.34633C8.90421 4.19562 9.16659 4.30862 9.16659 4.528V8.07033C9.16659 8.67591 8.67567 9.16683 8.07009 9.16683H1.92974C1.32417 9.16683 0.833252 8.67591 0.833252 8.07033V1.92999Z" fill="#2196F3"/>
<path d="M4.55245 4.6619C4.38974 4.49919 4.38974 4.23536 4.55245 4.07263L7.52799 1.09711C7.85341 0.771668 8.38108 0.771668 8.70649 1.09711L8.90283 1.29344C9.22829 1.61888 9.22829 2.14652 8.90283 2.47196L5.92728 5.44748C5.76458 5.61019 5.50078 5.61019 5.33803 5.44748L4.55245 4.6619Z" fill="#2196F3"/>
<path d="M3.67632 5.00284L3.37011 5.97301C3.27718 6.26743 3.52552 6.55709 3.83067 6.51026L4.95714 6.33734C5.19331 6.30109 5.28806 6.01176 5.1191 5.8428L4.1607 4.88439C4.00594 4.72964 3.7422 4.79414 3.67632 5.00284Z" fill="#2196F3"/>
</svg>
