<svg width="20" height="21" viewBox="0 0 20 21" fill="none" xmlns="http://www.w3.org/2000/svg">
<path d="M17.78 14.9505C17.78 14.8124 17.7088 14.679 17.5924 14.6072L16.5264 13.9507C16.5747 13.6721 16.6021 13.3671 16.6021 13.0963C16.6021 12.8255 16.5737 12.5193 16.5258 12.2419L17.5918 11.5854C17.7082 11.5136 17.7794 11.3802 17.7794 11.2421C17.7794 10.8981 16.8193 8.82579 16.3189 8.82579C16.2541 8.82579 16.1888 8.84352 16.1303 8.87954L15.0617 9.53778C14.6559 9.16784 14.187 8.878 13.6747 8.68429V7.36976C13.6747 7.18622 13.5567 7.02137 13.3881 6.9838C13.0069 6.89882 12.6158 6.85059 12.211 6.85059C11.8062 6.85059 11.414 6.89882 11.0336 6.98382C10.8662 7.02146 10.7473 7.18629 10.7473 7.36976V8.68429C10.235 8.878 9.76613 9.16784 9.36132 9.53673L8.29167 8.87947C8.23335 8.84336 8.16794 8.82555 8.10321 8.82555C7.65221 8.82555 6.6427 10.8249 6.6427 11.2419C6.6427 11.38 6.71387 11.5134 6.83031 11.5851L7.61205 12.2429C7.61205 12.2429 7.61205 12.2429 8.65895 13.2903C8.65895 13.2903 10.7473 15.3877 10.7473 17.3129V18.8219C10.7473 19.0054 10.8653 19.1703 11.0338 19.2078C11.4151 19.2932 11.8062 19.342 12.1904 19.342C12.5746 19.342 12.9875 19.2938 13.3678 19.2088C13.5558 19.1493 13.6747 19.0053 13.6747 18.8224V17.5078C14.1875 17.3142 14.6565 17.0243 15.0618 16.6547L16.1303 17.3129C16.1888 17.3489 16.2542 17.3666 16.3189 17.3666C16.7691 17.3658 17.78 15.3677 17.78 14.9505ZM12.211 15.0481C11.2022 15.0481 10.3814 14.1725 10.3814 13.0963C10.3814 12.0201 11.2024 11.1445 12.211 11.1445C13.2196 11.1445 14.0406 12.0201 14.0406 13.0963C14.0406 14.1725 13.2196 15.0481 12.211 15.0481Z" fill="#90A4AE"/>
<path d="M10.0597 18.2682C10.0597 18.0473 9.88061 17.8682 9.65969 17.8682H7.43048C7.20957 17.8682 7.03048 18.0473 7.03048 18.2682V19.4078C7.03048 19.6287 7.20957 19.8078 7.43048 19.8078H9.65969C9.88061 19.8078 10.0597 19.6287 10.0597 19.4078V18.2682Z" fill="#2196F3"/>
<path d="M6.3761 18.2682C6.3761 18.0473 6.19701 17.8682 5.9761 17.8682H3.74688C3.52597 17.8682 3.34688 18.0473 3.34688 18.2682V19.4078C3.34688 19.6287 3.52597 19.8078 3.74688 19.8078H5.9761C6.19701 19.8078 6.3761 19.6287 6.3761 19.4078V18.2682Z" fill="#2196F3"/>
<path d="M6.3761 15.8629C6.3761 15.642 6.19701 15.4629 5.9761 15.4629H3.74688C3.52597 15.4629 3.34688 15.642 3.34688 15.8629V17.0026C3.34688 17.2235 3.52597 17.4026 3.74688 17.4026H5.9761C6.19701 17.4026 6.3761 17.2235 6.3761 17.0026V15.8629Z" fill="#2196F3"/>
<path d="M10.0597 15.8629C10.0597 15.642 9.88061 15.4629 9.65969 15.4629H7.43048C7.20956 15.4629 7.03048 15.642 7.03048 15.8629V17.0026C7.03048 17.2235 7.20956 17.4026 7.43048 17.4026H9.65969C9.88061 17.4026 10.0597 17.2235 10.0597 17.0026V15.8629Z" fill="#2196F3"/>
<path d="M5.60809 13.0576H7.8373C8.05822 13.0576 8.2373 13.2367 8.2373 13.4576V14.5973C8.2373 14.8182 8.05822 14.9973 7.8373 14.9973H5.60809C5.38717 14.9973 5.20809 14.8182 5.20809 14.5973V13.4576C5.20809 13.2367 5.38718 13.0576 5.60809 13.0576Z" fill="#2196F3"/>
<path d="M19.7041 10.9288C19.7041 5.55139 15.3448 1.19213 9.9674 1.19213C4.58998 1.19213 0.230712 5.55139 0.230713 10.9288C0.230713 13.5473 1.26437 15.9244 2.94592 17.6743C1.87095 16.1847 1.2345 14.3363 1.2345 12.3341C1.2345 7.40018 5.09941 3.40045 9.86702 3.40045C14.6346 3.40045 18.4996 7.40018 18.4996 12.3341C18.4996 14.6869 17.6207 16.8273 16.1841 18.4229C18.3347 16.6369 19.7041 13.9428 19.7041 10.9288Z" fill="#90CAF9"/>
</svg>
