<svg width="20" height="20" viewBox="0 0 20 20" fill="none" xmlns="http://www.w3.org/2000/svg">
<path d="M4.23999 8.28881C4.23999 7.91514 4.38866 7.55677 4.6533 7.29255C4.91795 7.02832 5.27688 6.87988 5.65114 6.87988H11.2957C11.67 6.87988 12.0289 7.02832 12.2935 7.29255C12.5582 7.55677 12.7069 7.91514 12.7069 8.28881V16.7424C12.7069 17.116 12.5582 17.4744 12.2935 17.7386C12.0289 18.0028 11.67 18.1513 11.2957 18.1513H5.65114C5.27688 18.1513 4.91795 18.0028 4.6533 17.7386C4.38866 17.4744 4.23999 17.116 4.23999 16.7424V8.28881ZM5.65114 8.64104V10.05C5.65114 10.1434 5.6883 10.233 5.75446 10.299C5.82062 10.3651 5.91036 10.4022 6.00392 10.4022H10.9429C11.0365 10.4022 11.1262 10.3651 11.1924 10.299C11.2585 10.233 11.2957 10.1434 11.2957 10.05V8.64104C11.2957 8.54762 11.2585 8.45803 11.1924 8.39197C11.1262 8.32592 11.0365 8.28881 10.9429 8.28881H6.00392C5.91036 8.28881 5.82062 8.32592 5.75446 8.39197C5.6883 8.45803 5.65114 8.54762 5.65114 8.64104ZM5.65114 11.4589V12.1633C5.65114 12.2568 5.6883 12.3464 5.75446 12.4124C5.82062 12.4785 5.91036 12.5156 6.00392 12.5156H6.70949C6.80306 12.5156 6.89279 12.4785 6.95895 12.4124C7.02511 12.3464 7.06228 12.2568 7.06228 12.1633V11.4589C7.06228 11.3655 7.02511 11.2759 6.95895 11.2098C6.89279 11.1438 6.80306 11.1067 6.70949 11.1067H6.00392C5.91036 11.1067 5.82062 11.1438 5.75446 11.2098C5.6883 11.2759 5.65114 11.3655 5.65114 11.4589ZM6.00392 13.22C5.91036 13.22 5.82062 13.2572 5.75446 13.3232C5.6883 13.3893 5.65114 13.4789 5.65114 13.5723V14.2767C5.65114 14.3702 5.6883 14.4597 5.75446 14.5258C5.82062 14.5919 5.91036 14.629 6.00392 14.629H6.70949C6.80306 14.629 6.89279 14.5919 6.95895 14.5258C7.02511 14.4597 7.06228 14.3702 7.06228 14.2767V13.5723C7.06228 13.4789 7.02511 13.3893 6.95895 13.3232C6.89279 13.2572 6.80306 13.22 6.70949 13.22H6.00392ZM5.65114 15.6857V16.3901C5.65114 16.4835 5.6883 16.5731 5.75446 16.6392C5.82062 16.7052 5.91036 16.7424 6.00392 16.7424H6.70949C6.80306 16.7424 6.89279 16.7052 6.95895 16.6392C7.02511 16.5731 7.06228 16.4835 7.06228 16.3901V15.6857C7.06228 15.5922 7.02511 15.5026 6.95895 15.4366C6.89279 15.3705 6.80306 15.3334 6.70949 15.3334H6.00392C5.91036 15.3334 5.82062 15.3705 5.75446 15.4366C5.6883 15.5026 5.65114 15.5922 5.65114 15.6857ZM8.12064 11.1067C8.02707 11.1067 7.93734 11.1438 7.87118 11.2098C7.80502 11.2759 7.76785 11.3655 7.76785 11.4589V12.1633C7.76785 12.2568 7.80502 12.3464 7.87118 12.4124C7.93734 12.4785 8.02707 12.5156 8.12064 12.5156H8.82621C8.91978 12.5156 9.00951 12.4785 9.07567 12.4124C9.14183 12.3464 9.179 12.2568 9.179 12.1633V11.4589C9.179 11.3655 9.14183 11.2759 9.07567 11.2098C9.00951 11.1438 8.91978 11.1067 8.82621 11.1067H8.12064ZM7.76785 13.5723V14.2767C7.76785 14.3702 7.80502 14.4597 7.87118 14.5258C7.93734 14.5919 8.02707 14.629 8.12064 14.629H8.82621C8.91978 14.629 9.00951 14.5919 9.07567 14.5258C9.14183 14.4597 9.179 14.3702 9.179 14.2767V13.5723C9.179 13.4789 9.14183 13.3893 9.07567 13.3232C9.00951 13.2572 8.91978 13.22 8.82621 13.22H8.12064C8.02707 13.22 7.93734 13.2572 7.87118 13.3232C7.80502 13.3893 7.76785 13.4789 7.76785 13.5723ZM8.12064 15.3334C8.02707 15.3334 7.93734 15.3705 7.87118 15.4366C7.80502 15.5026 7.76785 15.5922 7.76785 15.6857V16.3901C7.76785 16.4835 7.80502 16.5731 7.87118 16.6392C7.93734 16.7052 8.02707 16.7424 8.12064 16.7424H8.82621C8.91978 16.7424 9.00951 16.7052 9.07567 16.6392C9.14183 16.5731 9.179 16.4835 9.179 16.3901V15.6857C9.179 15.5922 9.14183 15.5026 9.07567 15.4366C9.00951 15.3705 8.91978 15.3334 8.82621 15.3334H8.12064ZM9.88457 11.4589V12.1633C9.88457 12.2568 9.92174 12.3464 9.9879 12.4124C10.0541 12.4785 10.1438 12.5156 10.2374 12.5156H10.9429C11.0365 12.5156 11.1262 12.4785 11.1924 12.4124C11.2585 12.3464 11.2957 12.2568 11.2957 12.1633V11.4589C11.2957 11.3655 11.2585 11.2759 11.1924 11.2098C11.1262 11.1438 11.0365 11.1067 10.9429 11.1067H10.2374C10.1438 11.1067 10.0541 11.1438 9.9879 11.2098C9.92174 11.2759 9.88457 11.3655 9.88457 11.4589ZM10.2374 13.22C10.1438 13.22 10.0541 13.2572 9.9879 13.3232C9.92174 13.3893 9.88457 13.4789 9.88457 13.5723V16.3901C9.88457 16.4835 9.92174 16.5731 9.9879 16.6392C10.0541 16.7052 10.1438 16.7424 10.2374 16.7424H10.9429C11.0365 16.7424 11.1262 16.7052 11.1924 16.6392C11.2585 16.5731 11.2957 16.4835 11.2957 16.3901V13.5723C11.2957 13.4789 11.2585 13.3893 11.1924 13.3232C11.1262 13.2572 11.0365 13.22 10.9429 13.22H10.2374Z" fill="#90A4AE"/>
<path d="M17.12 11.4932V11.9496C17.12 12.3509 15.9734 12.6792 14.5619 12.6792C13.1505 12.6792 12.0039 12.3509 12.0039 11.9499V11.4932C12.0039 11.0917 13.1505 10.7637 14.5619 10.7637C15.9734 10.7637 17.12 11.0917 17.12 11.4932ZM17.12 12.5196V13.5461C17.12 13.9472 15.9734 14.2754 14.5619 14.2754C13.1505 14.2754 12.0039 13.9472 12.0039 13.5461V12.5196C12.5534 12.85 13.5593 13.0046 14.5619 13.0046C15.5646 13.0046 16.5707 12.8498 17.12 12.5196ZM17.12 14.1158V15.1424C17.12 15.5435 15.9734 15.8717 14.5619 15.8717C13.1505 15.8717 12.0039 15.5437 12.0039 15.1421V14.1158C12.5534 14.4463 13.5593 14.601 14.5619 14.601C15.5646 14.601 16.5707 14.446 17.12 14.1158Z" fill="#64B5F6"/>
<path d="M14.5435 19.6894C14.2729 19.7864 13.979 19.8404 13.674 19.8404C13.369 19.8404 13.0751 19.7864 12.8045 19.6894C12.7898 19.6882 12.7971 19.6869 12.7947 19.6857C12.4245 19.5507 12.0949 19.3321 11.828 19.0546C11.387 18.5954 11.116 17.9728 11.116 17.2864C11.116 15.8758 12.2609 14.7324 13.674 14.7324C15.0871 14.7324 16.232 15.8758 16.232 17.2864C16.232 17.9728 15.9504 18.5954 15.52 19.0546C15.5077 19.0669 15.4954 19.0804 15.4831 19.0926C15.2199 19.3542 14.9001 19.5605 14.5435 19.6894ZM13.4268 16.0966V16.1813C13.3579 16.1961 13.2817 16.2169 13.2313 16.244C13.048 16.3274 12.8881 16.4822 12.8488 16.7069C12.8266 16.8321 12.8389 16.9537 12.8906 17.063C12.9423 17.171 13.0222 17.2471 13.1034 17.3024C13.246 17.3994 13.4342 17.4559 13.5781 17.4989L13.6051 17.5062C13.7773 17.559 13.8929 17.5971 13.9655 17.6499C13.9962 17.672 14.0073 17.6892 14.011 17.7002C14.0159 17.71 14.0233 17.7322 14.0147 17.7813C14.0073 17.8242 13.9839 17.8611 13.9163 17.8893C13.8413 17.9212 13.7195 17.9372 13.5621 17.9127C13.4883 17.9004 13.3567 17.8562 13.2399 17.8169C13.2128 17.8071 13.1858 17.7985 13.1612 17.7899C13.032 17.7469 12.8931 17.8169 12.85 17.9458C12.807 18.0747 12.8771 18.2135 13.0062 18.2454C13.021 18.2614 13.0394 18.2675 13.0603 18.2749C13.1464 18.308 13.31 18.3596 13.4268 18.3866V18.4652C13.4268 18.6015 13.5375 18.712 13.6629 18.712C13.8105 18.712 13.9212 18.6015 13.9212 18.4652V18.3977C13.9864 18.3854 14.0503 18.3559 14.1094 18.3412C14.3037 18.2589 14.4586 18.0993 14.4992 17.866C14.5213 17.7383 14.5115 17.6155 14.4623 17.5038C14.4144 17.3933 14.3369 17.3122 14.2545 17.2533C14.1057 17.144 13.9064 17.0851 13.7576 17.0396L13.7367 17.0372C13.5732 16.9844 13.4551 16.9475 13.3801 16.896C13.3481 16.8739 13.3383 16.8591 13.3358 16.853C13.3333 16.8481 13.326 16.8333 13.3333 16.7916C13.3383 16.767 13.3567 16.7265 13.4342 16.6921C13.5031 16.6565 13.6359 16.6369 13.7859 16.6492C13.84 16.6688 14.006 16.7007 14.054 16.713C14.1844 16.7486 14.3197 16.67 14.3541 16.5386C14.3898 16.4085 14.311 16.2734 14.1795 16.239C14.1253 16.2243 14.0024 16.1997 13.9212 16.185V16.1077C13.9212 15.9714 13.8105 15.8609 13.674 15.8609C13.5375 15.8609 13.4268 15.9714 13.4268 16.1077V16.0966Z" fill="#2196F3"/>
<path d="M19.7599 9.95974C19.7599 4.59192 15.4081 0.240431 10.0399 0.240431C4.67174 0.240431 0.319946 4.59192 0.319946 9.95974C0.319946 12.5736 1.35183 14.9465 3.0305 16.6932C1.95737 15.2062 1.32201 13.3612 1.32201 11.3625C1.32201 6.43741 5.18029 2.44481 9.93973 2.44481C14.6992 2.44481 18.5575 6.43741 18.5575 11.3625C18.5575 13.7112 17.6801 15.8478 16.246 17.4404C18.3929 15.6576 19.7599 12.9683 19.7599 9.95974Z" fill="#90CAF9"/>
</svg>
