<svg width="20" height="20" viewBox="0 0 20 20" fill="none" xmlns="http://www.w3.org/2000/svg">
<g clip-path="url(#clip0_505_3477)">
<path d="M20 10.6226C20 5.09977 15.5228 0.622627 10 0.622627C4.47715 0.622627 -5.77846e-07 5.09978 -3.36434e-07 10.6226C-2.1888e-07 13.312 1.06161 15.7533 2.78863 17.5506C1.6846 16.0206 1.03093 14.1223 1.03093 12.0659C1.03093 6.99857 5.00036 2.89067 9.89691 2.89067C14.7935 2.89067 18.7629 6.99857 18.7629 12.0659C18.7629 14.4824 17.8602 16.6807 16.3848 18.3193C18.5935 16.485 20 13.7181 20 10.6226Z" fill="#90CAF9"/>
<path d="M9.14232 19.3688C9.14232 19.3688 8.28955 19.3688 8.28955 18.4476C8.28955 17.5264 9.14232 14.7628 12.5534 14.7628C15.9644 14.7628 16.8172 17.5264 16.8172 18.4476C16.8172 19.3688 15.9644 19.3688 15.9644 19.3688H9.14232ZM12.5534 13.8416C13.2319 13.8416 13.8826 13.5505 14.3624 13.0322C14.8421 12.5139 15.1117 11.811 15.1117 11.0781C15.1117 10.3451 14.8421 9.64217 14.3624 9.12389C13.8826 8.60562 13.2319 8.31445 12.5534 8.31445C11.8749 8.31445 11.2242 8.60562 10.7444 9.12389C10.2646 9.64217 9.99508 10.3451 9.99508 11.0781C9.99508 11.811 10.2646 12.5139 10.7444 13.0322C11.2242 13.5505 11.8749 13.8416 12.5534 13.8416Z" fill="#2196F3"/>
<path fill-rule="evenodd" clip-rule="evenodd" d="M7.621 19.3691C7.49458 19.0815 7.43154 18.7662 7.4368 18.4479C7.4368 17.1997 8.01669 15.9146 9.08776 15.021C8.55315 14.8431 7.99618 14.7561 7.4368 14.7631C4.02574 14.7631 3.17297 17.5267 3.17297 18.4479C3.17297 19.3691 4.02574 19.3691 4.02574 19.3691H7.621Z" fill="#2196F3"/>
<path d="M7.01046 13.8423C7.57588 13.8423 8.11814 13.5997 8.51795 13.1678C8.91776 12.7359 9.14237 12.1501 9.14237 11.5393C9.14237 10.9285 8.91776 10.3428 8.51795 9.91086C8.11814 9.47896 7.57588 9.23633 7.01046 9.23633C6.44504 9.23633 5.90278 9.47896 5.50296 9.91086C5.10315 10.3428 4.87854 10.9285 4.87854 11.5393C4.87854 12.1501 5.10315 12.7359 5.50296 13.1678C5.90278 13.5997 6.44504 13.8423 7.01046 13.8423Z" fill="#2196F3"/>
</g>
<defs>
<clipPath id="clip0_505_3477">
<rect width="20" height="20" fill="white"/>
</clipPath>
</defs>
</svg>
