<svg width="21" height="20" viewBox="0 0 21 20" fill="none" xmlns="http://www.w3.org/2000/svg">
<path opacity="0.3" d="M3.1991 16.7042L3.29229 16.2032L3.72721 16.0438L3.9602 15.4518L4.44172 15.2013H4.59705L4.67471 14.8825L5.07856 14.6321L5.32709 14.8825L5.45135 14.7687L5.9484 14.8825L6.42991 14.4727L7.37741 14.9736L7.53274 15.338L7.93659 15.5657L8.01426 16.1349L8.21618 16.2032L8.32491 16.7042H3.1991Z" fill="#2196F3"/>
<path opacity="0.3" d="M13.9859 8.04332L14.5729 7.80762V9.37908L14.0581 9.58607C13.9943 9.61169 13.9248 9.56452 13.9248 9.49539V8.13388C13.9248 8.09403 13.949 8.05816 13.9859 8.04332Z" fill="#2196F3"/>
<path opacity="0.3" d="M15.8656 7.81468L15.3507 8.02143V9.5929L15.9377 9.35744C15.9745 9.34239 15.9988 9.30661 15.9988 9.26675V7.90533C15.9988 7.83628 15.9296 7.78906 15.8656 7.81468Z" fill="#2196F3"/>
<path d="M14.573 9.37908L15.3507 9.59286V8.02143L14.573 7.80762V9.37908Z" fill="#2196F3"/>
<path d="M15.4591 9.67501C15.4591 9.66448 15.4648 9.65431 15.4743 9.64884L15.5606 9.5988C15.5567 9.57756 15.5544 9.55432 15.5544 9.53368C15.5544 9.51304 15.5567 9.4897 15.5606 9.46855L15.4743 9.41851C15.4649 9.41304 15.4591 9.40287 15.4591 9.39235C15.4591 9.36613 15.5369 9.20817 15.5774 9.20817C15.5826 9.20817 15.5879 9.20952 15.5926 9.21227L15.6792 9.26244C15.712 9.23424 15.75 9.21215 15.7915 9.19739V9.09719C15.7915 9.0832 15.801 9.07063 15.8147 9.06777C15.8455 9.06129 15.8772 9.05762 15.91 9.05762C15.9428 9.05762 15.9745 9.06129 16.0053 9.06777C16.0189 9.07064 16.0285 9.08321 16.0285 9.09719V9.19739C16.07 9.21215 16.1079 9.23424 16.1407 9.26236L16.2273 9.21226C16.232 9.20951 16.2373 9.20815 16.2426 9.20815C16.2791 9.20815 16.3608 9.36055 16.3608 9.39233C16.3608 9.40285 16.3551 9.41303 16.3456 9.41849L16.2593 9.46854C16.2632 9.48979 16.2655 9.51136 16.2655 9.53368C16.2655 9.55599 16.2632 9.57766 16.2593 9.5988L16.3456 9.64884C16.3551 9.65431 16.3608 9.66448 16.3608 9.67501C16.3608 9.70123 16.2831 9.85918 16.2426 9.85918C16.2373 9.85918 16.2321 9.85783 16.2273 9.85509L16.1408 9.80491C16.1079 9.83307 16.07 9.8552 16.0285 9.8699V9.97009C16.0285 9.98408 16.0189 9.99665 16.0053 9.99951C15.9744 10.006 15.9428 10.0097 15.9116 10.0097C15.8805 10.0097 15.8471 10.0061 15.8163 9.99958C15.8011 9.99505 15.7915 9.98408 15.7915 9.97013V9.86993C15.7499 9.85517 15.712 9.83307 15.6792 9.8049L15.5926 9.85507C15.5879 9.85782 15.5826 9.85917 15.5774 9.85917C15.5409 9.85911 15.4591 9.70681 15.4591 9.67501ZM15.91 9.68245C15.9917 9.68245 16.0581 9.61571 16.0581 9.53368C16.0581 9.45165 15.9916 9.38491 15.91 9.38491C15.8283 9.38491 15.7618 9.45165 15.7618 9.53368C15.7618 9.61571 15.8283 9.68245 15.91 9.68245Z" fill="#2196F3"/>
<path d="M4.55065 12.4876C4.55065 12.4001 4.47997 12.3291 4.39279 12.3291H4.21655C4.16832 12.3291 4.12272 12.3513 4.09278 12.3892L3.76881 12.8002L3.29648 13.4453C3.28569 13.46 3.27747 13.4765 3.27244 13.4941C3.20211 13.7403 3.1938 13.8938 3.20138 14.1544C3.20177 14.1675 3.20386 14.1809 3.20759 14.1934C3.34476 14.6561 3.53849 14.6925 3.90547 14.685C3.91847 14.6847 3.93152 14.6827 3.94405 14.6792L5.74629 14.1765C5.85449 14.1463 5.83508 13.9701 5.7234 13.9583L5.7086 13.9512C5.41112 13.8094 5.23981 13.7277 4.96111 13.4675C4.72272 13.2317 4.65 13.0834 4.55946 12.8255C4.55359 12.8087 4.55065 12.7911 4.55065 12.7734L4.55065 12.4876Z" fill="#2196F3"/>
<g opacity="0.3">
<path fill-rule="evenodd" clip-rule="evenodd" d="M10.4588 10.2875C10.332 10.2873 10.2316 10.2843 10.1484 10.2818C10.0163 10.2778 9.92745 10.2751 9.84474 10.287L10.4588 10.2875Z" fill="#2196F3"/>
<path d="M10.4731 10.2875V9.54165C10.4731 9.32573 10.2385 8.89391 10.0235 8.79577C9.80853 8.69763 5.78207 6.51888 5.6257 6.55814C5.46934 6.5974 5.17615 7.10773 5.07842 7.34327C4.98721 7.5631 4.24907 11.7151 4.15097 12.2682C4.14523 12.3006 4.17026 12.3289 4.20301 12.3289H4.51432C4.5362 12.3289 4.5558 12.3153 4.56354 12.2947L6.28616 7.72014C6.29821 7.68814 6.3369 7.6759 6.36504 7.69518L8.77259 9.34537C9.18181 9.59194 9.3306 9.76488 9.41761 10.1501L9.48335 10.8213C9.48883 10.8773 9.56344 10.886 9.58054 10.8325C9.67904 10.5239 9.73307 10.303 9.84474 10.287C9.92745 10.2751 10.0163 10.2778 10.1484 10.2818C10.2316 10.2843 10.332 10.2873 10.4588 10.2875L10.4731 10.2875Z" fill="#2196F3"/>
</g>
<path fill-rule="evenodd" clip-rule="evenodd" d="M12.6231 14.095C12.7103 14.095 12.7794 14.0253 12.7794 13.9377C12.7794 13.2822 12.7794 10.7937 12.7794 10.6404C12.7794 10.4638 12.6621 10.2871 12.5644 10.2871C12.4962 10.2871 11.2553 10.2871 10.473 10.2871C10.1352 10.2871 9.84753 10.2871 9.84753 10.2871C9.70782 10.2866 9.65753 10.6333 9.50596 11.0526C9.28596 11.6612 9.04614 12.4238 9.04614 12.5051C9.04614 12.6425 9.04614 13.3884 9.04614 13.6239C9.04614 13.8595 9.30024 14.095 9.53479 14.095C9.73702 14.095 12.0026 14.095 12.6231 14.095ZM11.068 12.5292C11.1427 12.5152 11.1962 12.4498 11.1962 12.3735V10.7204C11.1962 10.6329 11.1259 10.5619 11.0387 10.5619C10.7972 10.5619 10.341 10.5619 10.1294 10.5619C10.0652 10.5619 10.0079 10.6002 9.98389 10.6599C9.83786 11.023 9.33648 12.2786 9.31979 12.4462C9.30024 12.6425 9.22206 12.8781 9.31979 12.8584C9.40149 12.842 10.6581 12.6061 11.068 12.5292ZM11.5691 11.7396C11.4819 11.7396 11.4112 11.6686 11.4112 11.5811V10.8971C11.4112 10.8095 11.4819 10.7386 11.5691 10.7386H12.0352C12.1224 10.7386 12.193 10.8095 12.193 10.8971V11.5811C12.193 11.6686 12.1224 11.7396 12.0352 11.7396H11.5691Z" fill="#2196F3"/>
<path opacity="0.3" d="M8.24487 15.8615C8.24487 15.2978 8.69992 14.8408 9.26126 14.8408H14.9687C15.53 14.8408 15.985 15.2978 15.985 15.8615C15.985 16.4252 15.53 16.8822 14.9687 16.8822H9.26126C8.69992 16.8822 8.24487 16.4252 8.24487 15.8615Z" fill="#2196F3"/>
<path d="M8.71094 15.8615C8.71094 15.5146 8.99097 15.2334 9.33641 15.2334H14.8874C15.2329 15.2334 15.5129 15.5146 15.5129 15.8615C15.5129 16.2084 15.2329 16.4896 14.8874 16.4896H9.33641C8.99097 16.4896 8.71094 16.2084 8.71094 15.8615Z" fill="#2196F3"/>
<rect opacity="0.3" x="10.825" y="14.6055" width="2.54096" height="0.235545" fill="#2196F3"/>
<rect x="9.18298" y="14.0957" width="5.43376" height="0.510335" rx="0.255167" fill="#2196F3"/>
<path opacity="0.3" d="M12.7795 12.2411C12.7795 12.0076 12.968 11.8184 13.2005 11.8184H14.1959C14.4284 11.8184 14.6168 12.0076 14.6168 12.2411V13.6725C14.6168 13.906 14.4284 14.0952 14.1959 14.0952H13.2005C12.968 14.0952 12.7795 13.906 12.7795 13.6725V12.2411Z" fill="#2196F3"/>
<path d="M12.9735 12.5056C12.9735 12.3213 13.1223 12.1719 13.3058 12.1719C13.4893 12.1719 13.6381 12.3213 13.6381 12.5056V13.3692C13.6381 13.5535 13.4893 13.7029 13.3058 13.7029C13.1223 13.7029 12.9735 13.5535 12.9735 13.3692V12.5056Z" fill="#2196F3"/>
<path d="M13.7944 12.5056C13.7944 12.3213 13.9432 12.1719 14.1267 12.1719C14.3102 12.1719 14.459 12.3213 14.459 12.5056V13.3692C14.459 13.5535 14.3102 13.7029 14.1267 13.7029C13.9432 13.7029 13.7944 13.5535 13.7944 13.3692V12.5056Z" fill="#2196F3"/>
<path d="M10.2753 4.33301C9.99071 4.33301 9.81536 4.5511 9.81536 4.81163V8.33028C9.85513 8.35127 9.89212 8.37078 9.92609 8.38864C9.99135 8.42297 10.0449 8.45094 10.0851 8.47172C10.1053 8.48213 10.1216 8.49045 10.1341 8.49674C10.1403 8.49987 10.1453 8.50232 10.149 8.50415C10.1502 8.50472 10.1511 8.50519 10.1519 8.50556C10.1535 8.50632 10.1543 8.50669 10.1545 8.50678C10.2627 8.55617 10.3515 8.63572 10.4186 8.70986C10.4885 8.78704 10.5507 8.87584 10.6023 8.96477C10.6975 9.12864 10.7896 9.34973 10.7896 9.54203V10.0544H12.7688C12.879 10.0544 13.0112 10.2535 13.0112 10.4525V11.2613H16.2373C16.496 11.2613 16.7145 11.0592 16.7145 10.7994C16.7145 10.4908 16.693 10.1873 16.6513 9.89028C16.6438 9.90528 16.6357 9.92039 16.6272 9.93515C16.6102 9.96489 16.5855 10.0043 16.5544 10.0406C16.5393 10.0584 16.5147 10.0849 16.481 10.1094C16.4563 10.1274 16.3979 10.1658 16.3145 10.1748C16.2669 10.241 16.1955 10.2915 16.1063 10.3103C16.057 10.3207 16.0034 10.3273 15.9476 10.3273C15.8933 10.3273 15.8381 10.3211 15.7874 10.3104L15.7747 10.3077L15.7622 10.304C15.6985 10.285 15.6277 10.2419 15.5775 10.1748C15.4907 10.1653 15.4312 10.1238 15.4101 10.1083C15.3784 10.0848 15.355 10.0598 15.3406 10.0431C15.3108 10.0087 15.2863 9.97121 15.2688 9.94172C15.255 9.91859 15.2418 9.89401 15.2301 9.86977L14.6089 9.70476L14.2115 9.88127C13.94 9.99026 13.6443 9.78954 13.6443 9.49542V8.13392C13.6443 7.9638 13.7475 7.81128 13.9043 7.74827L14.6089 7.47977L15.3867 7.68638L15.7843 7.51946C15.7957 7.5149 15.8072 7.51089 15.8186 7.5074C14.6971 5.60715 12.6342 4.33301 10.2753 4.33301Z" fill="#B0BEC5"/>
<path d="M8.80151 13.8146V13.0144L8.43553 12.6469V9.49956L6.46359 8.14795L4.86021 12.4059C4.8648 12.4325 4.86719 12.4599 4.86719 12.4878L4.86719 12.7459C4.90593 12.8542 4.93661 12.9253 4.97596 12.9909C5.01721 13.0596 5.07534 13.1342 5.18001 13.238C5.41508 13.4569 5.55052 13.524 5.82475 13.6549C6.02326 13.708 6.11727 13.8891 6.13202 14.0266C6.14849 14.1802 6.07829 14.4139 5.83103 14.4829L5.73927 14.5085L5.8645 14.5372L6.38829 14.0913L7.62423 14.7448L7.78144 15.1135L8.06416 15.273C8.23102 14.9319 8.53819 14.6725 8.91008 14.5708C8.88201 14.503 8.86653 14.4287 8.86653 14.351C8.86653 14.2666 8.88477 14.1863 8.91755 14.1139C8.84661 14.0252 8.80151 13.9199 8.80151 13.8146Z" fill="#B0BEC5"/>
<path d="M4.32901 14.9019L4.02879 14.9857C3.99107 14.9962 3.95175 15.0021 3.91199 15.0029C3.73601 15.0065 3.50823 15.0071 3.3096 14.8895C3.09576 14.7628 2.98135 14.5443 2.90426 14.2843C2.89248 14.2446 2.88619 14.2038 2.88502 14.1638C2.87686 13.8833 2.88594 13.6946 2.96822 13.4066C2.98399 13.3514 3.00935 13.301 3.0415 13.2571L3.51718 12.6075L3.84256 12.1947C3.89698 11.888 4.10188 10.7359 4.30599 9.62353C4.41015 9.05589 4.51429 8.49763 4.59819 8.06709C4.6401 7.85202 4.67725 7.66734 4.70698 7.52875C4.72181 7.45965 4.73519 7.40012 4.74669 7.35318C4.75596 7.31535 4.76951 7.26172 4.78624 7.2214C4.84364 7.08306 4.951 6.87948 5.06487 6.70397C5.12196 6.61597 5.18632 6.52624 5.25244 6.45228C5.28547 6.41534 5.32383 6.3768 5.36649 6.34334C5.40578 6.31254 5.46816 6.27043 5.54893 6.25015C5.60443 6.23622 5.65094 6.24028 5.66885 6.24217C5.69203 6.24461 5.71205 6.24889 5.72607 6.25231C5.75428 6.25918 5.78221 6.26852 5.80598 6.27713C5.85476 6.29482 5.91422 6.31987 5.9793 6.34892C6.11089 6.40765 6.28653 6.49226 6.48902 6.59293C6.89504 6.79479 7.42222 7.06783 7.9491 7.34404C8.11227 7.42958 8.27561 7.51553 8.43553 7.59989V5.76513C8.43553 5.49811 8.21131 5.28535 7.92097 5.32173C4.58639 5.78621 1.99634 8.68337 1.99634 12.185C1.99634 13.568 2.39973 14.8561 3.09466 15.9372L3.48513 15.7941L3.70941 15.2242L4.32901 14.9019Z" fill="#B0BEC5"/>
<path d="M4.77222 14.4484L3.94408 14.6794C3.93155 14.6829 3.9185 14.6848 3.90549 14.6851C3.53852 14.6927 3.34478 14.6562 3.20762 14.1936C3.20389 14.181 3.20179 14.1676 3.20141 14.1545C3.19382 13.894 3.20213 13.7404 3.27247 13.4943C3.27749 13.4767 3.28571 13.4602 3.29651 13.4454L3.76884 12.8003L3.96102 12.5566C4.02695 12.6133 4.11246 12.6471 4.20301 12.6471H4.51432C4.52655 12.6471 4.53868 12.6465 4.55068 12.6453L4.55068 12.7735C4.55068 12.7913 4.55362 12.8089 4.55949 12.8256C4.65002 13.0836 4.72274 13.2319 4.96114 13.4677C5.1988 13.6895 5.35837 13.7816 5.58469 13.8919C5.58958 13.8942 5.5945 13.8966 5.59945 13.899C5.62541 13.9116 5.65228 13.9245 5.68025 13.9378L5.72343 13.9584C5.8351 13.9703 5.85452 14.1465 5.74631 14.1767L5.21947 14.3236L5.12572 14.2291L4.77222 14.4484Z" fill="#2196F3"/>
<path d="M3.95597 17.022C5.20921 18.3123 6.95951 19.1133 8.89548 19.1133C10.3845 19.1133 11.7644 18.6398 12.8912 17.8344C13.0993 17.6852 13.1245 17.3957 12.9669 17.2009H9.26122C9.01855 17.2009 8.79103 17.1358 8.59504 17.022H3.95597Z" fill="#B0BEC5"/>
<path d="M14.9686 17.2009H14.8101L14.8374 17.2282C15.0041 17.3956 15.2743 17.3841 15.4468 17.2455C15.5463 17.152 15.643 17.0556 15.7369 16.9563C15.5197 17.1104 15.2547 17.2009 14.9686 17.2009Z" fill="#B0BEC5"/>
<path d="M16.1572 16.4688C16.2495 16.2868 16.3015 16.0807 16.3015 15.8624C16.3015 15.1231 15.7048 14.5238 14.9686 14.5238H14.9068C14.9241 14.4692 14.9333 14.4111 14.9333 14.351C14.9333 14.2348 14.8987 14.1262 14.8391 14.0355C14.8991 13.9284 14.9333 13.8047 14.9333 13.6731V12.6469H17.1284C17.3929 12.6469 17.6056 12.8721 17.5711 13.1377C17.4 14.3853 16.8972 15.5259 16.1572 16.4688Z" fill="#B0BEC5"/>
<path d="M20.0329 10.9934C20.0329 5.45005 15.5484 0.956257 10.0164 0.956257C4.48451 0.956257 0 5.45005 0 10.9934C0 13.6928 1.06336 16.1432 2.79322 17.9471C1.68737 16.4115 1.03262 14.5061 1.03262 12.4421C1.03262 7.3559 5.00858 3.23273 9.91318 3.23273C14.8178 3.23273 18.7937 7.3559 18.7937 12.4421C18.7937 14.8675 17.8896 17.074 16.4117 18.7188C18.6241 16.8776 20.0329 14.1004 20.0329 10.9934Z" fill="#90CAF9"/>
</svg>
