<svg width="200" height="200" viewBox="0 0 200 200" fill="none" xmlns="http://www.w3.org/2000/svg">
<path d="M198.161 100.562C198.161 46.2506 154.133 2.22244 99.8212 2.22244C45.5096 2.22244 1.48144 46.2506 1.48144 100.562C1.48144 127.009 11.9213 151.018 28.9048 168.691C18.0477 153.646 11.6196 134.978 11.6196 114.755C11.6196 64.9233 50.6549 24.5263 98.8074 24.5263C146.96 24.5263 185.995 64.9233 185.995 114.755C185.995 138.519 177.118 160.137 162.609 176.251C184.33 158.213 198.161 131.003 198.161 100.562Z" fill="#A5D6A7"/>
<ellipse rx="12.3316" ry="12.3316" transform="matrix(-1 0 0 1 140.398 186.187)" fill="#B0BEC5"/>
<ellipse rx="12.3316" ry="12.3316" transform="matrix(-1 0 0 1 110.076 186.187)" fill="#B0BEC5"/>
<ellipse rx="12.3316" ry="12.3316" transform="matrix(-1 0 0 1 55.0874 186.187)" fill="#B0BEC5"/>
<path fill-rule="evenodd" clip-rule="evenodd" d="M156.774 178.101C156.774 178.101 158.189 176.686 158.189 175.877V169.813C158.189 167.387 156.774 165.365 154.146 165.365H76.315V138.074C76.315 136.456 75.1021 135.244 73.2827 135.244C71.4632 135.244 57.7166 135.244 55.695 135.244C53.6734 135.244 51.0454 138.074 51.0454 138.074C51.0454 138.074 38.5116 152.629 37.9052 153.64C37.2987 154.651 37.2987 154.651 37.2987 155.459C37.2987 156.268 37.0965 174.058 37.0965 175.473C37.0965 176.888 38.7138 178.303 38.7138 178.303C38.7138 178.303 43.3634 167.993 55.0885 167.993C66.8136 167.993 72.2719 180.123 72.2719 180.123H92.2854C92.2854 180.123 96.7329 167.993 108.862 167.993C120.992 167.993 125.035 176.079 125.035 176.079C125.035 176.079 129.28 167.993 140.399 167.993C151.517 167.993 156.774 178.101 156.774 178.101ZM67.2179 156.066V144.138H57.5144L47.6087 156.066H67.2179Z" fill="#4CAF50"/>
<path fill-rule="evenodd" clip-rule="evenodd" d="M157.987 123.559C157.987 117.843 153.353 113.208 147.636 113.208H92.326C86.6096 113.208 81.9756 117.843 81.9756 123.559V148.546C81.9756 154.262 86.6096 158.896 92.326 158.896H147.636C153.353 158.896 157.987 154.262 157.987 148.546V123.559ZM146.262 123.923C146.262 122.248 144.904 120.89 143.229 120.89C141.554 120.89 140.197 122.248 140.197 123.923V148.586C140.197 150.261 141.554 151.618 143.229 151.618C144.904 151.618 146.262 150.261 146.262 148.586V123.923ZM127.865 120.89C129.54 120.89 130.898 122.248 130.898 123.923V148.586C130.898 150.261 129.54 151.618 127.865 151.618C126.191 151.618 124.833 150.261 124.833 148.586V123.923C124.833 122.248 126.191 120.89 127.865 120.89ZM115.534 123.923C115.534 122.248 114.176 120.89 112.501 120.89C110.827 120.89 109.469 122.248 109.469 123.923V148.586C109.469 150.261 110.827 151.618 112.501 151.618C114.176 151.618 115.534 150.261 115.534 148.586V123.923ZM97.1374 120.89C98.8121 120.89 100.17 122.248 100.17 123.923V148.586C100.17 150.261 98.8121 151.618 97.1374 151.618C95.4626 151.618 94.105 150.261 94.105 148.586V123.923C94.105 122.248 95.4626 120.89 97.1374 120.89Z" fill="#B0BEC5"/>
<path fill-rule="evenodd" clip-rule="evenodd" d="M32.955 147.916V94.7753C32.955 89.3024 36.2948 84.3537 41.3893 82.3197L97.5488 59.8519C99.1422 59.2121 100.945 59.2121 102.539 59.8519L158.704 82.3197C163.799 84.3537 167.132 89.3024 167.132 94.7753V161.184C167.132 163.973 164.889 166.217 162.101 166.217H157.152C156.431 165.173 155.27 164.501 153.707 164.501H148.246C147.473 163.617 147.006 162.457 147.006 161.184V160.419H150.659C157.012 160.419 162.163 155.295 162.163 148.973V121.342C162.163 115.02 157.012 109.896 150.659 109.896H147.006V105.637C147.006 102.114 144.008 98.9272 140.297 98.9272H59.7905C56.0796 98.9272 53.0816 102.114 53.0816 105.637V132.259L48.6587 132.259C46.5016 132.258 43.6974 135.288 43.6974 135.288C43.6974 135.288 37.1069 142.966 32.955 147.916ZM77.6808 122.601V121.342C77.6808 115.02 82.8313 109.896 89.1848 109.896H140.297V105.826H59.7905V122.601H77.6808ZM77.6808 132.259V129.311H59.7905V132.259H67.4256H77.6808Z" fill="#90A4AE"/>
</svg>
