<svg width="20" height="20" viewBox="0 0 20 20" fill="none" xmlns="http://www.w3.org/2000/svg">
<g clip-path="url(#clip0_505_3504)">
<path d="M20 11.1433C20 5.61147 15.5229 1.12704 10 1.12704C4.47715 1.12704 -5.78785e-07 5.61147 -3.36981e-07 11.1433C-2.19236e-07 13.837 1.06161 16.2824 2.78863 18.0825C1.6846 16.5501 1.03093 14.6486 1.03093 12.5889C1.03093 7.51335 5.00036 3.39877 9.89691 3.39877C14.7935 3.39877 18.7629 7.51335 18.7629 12.5889C18.7629 15.0093 17.8602 17.2112 16.3848 18.8525C18.5935 17.0153 20 14.2438 20 11.1433Z" fill="#90CAF9"/>
<ellipse cx="10.0467" cy="11.5954" rx="4.08666" ry="4.08666" fill="#C4C4C4"/>
<path opacity="0.6" d="M17.266 11.2192V12.0074C17.266 12.4373 16.9793 12.7239 16.6211 12.7955L15.6896 12.9389C15.5463 13.5121 15.3313 14.0853 14.9731 14.5869L15.5463 15.375C15.7612 15.6616 15.7612 16.1632 15.4746 16.4498L14.9014 17.0231C14.6148 17.3097 14.1849 17.3097 13.8266 17.0947L13.0384 16.5215C12.5368 16.8081 11.9636 17.0947 11.3904 17.238L11.2471 18.1695C11.1754 18.5278 10.8172 18.8144 10.4589 18.8144H9.67071C9.24079 18.8144 8.95418 18.5278 8.88252 18.1695L8.73922 17.238C8.16599 17.0947 7.59277 16.8798 7.09119 16.5215L6.30301 17.0947C6.01639 17.3097 5.51482 17.3097 5.22821 17.0231L4.65498 16.4498C4.36837 16.1632 4.36837 15.7333 4.58333 15.375L5.15655 14.5869C4.86994 14.0853 4.58333 13.5121 4.44002 12.9389L3.50853 12.7955C3.15026 12.7239 2.86365 12.3656 2.86365 12.0074V11.2192C2.86365 10.7893 3.15026 10.5026 3.50853 10.431L4.44002 10.2877C4.58333 9.71442 4.79829 9.14124 5.15655 8.63967L4.58333 7.85142C4.36837 7.5648 4.36837 7.06323 4.65498 6.77662L5.22821 6.20344C5.51482 5.91683 5.94474 5.91684 6.30301 6.1318L7.09119 6.70498C7.59277 6.41837 8.16599 6.13175 8.73922 5.98845L8.88252 5.057C8.95418 4.69874 9.31244 4.41211 9.67071 4.41211H10.4589C10.8888 4.41211 11.1754 4.69874 11.2471 5.057L11.3904 5.98845C11.9636 6.13175 12.5368 6.34671 13.0384 6.70498L13.8266 6.1318C14.1132 5.91684 14.6148 5.91683 14.9014 6.20344L15.4746 6.77662C15.7612 7.06323 15.7612 7.49315 15.5463 7.85142L14.9731 8.63967C15.2597 9.14124 15.5463 9.71442 15.6896 10.2877L16.6211 10.431C16.9793 10.5026 17.266 10.8609 17.266 11.2192ZM10.1006 6.70498C8.73922 6.70498 5.22821 7.35304 5.22821 11.6491C5.22821 13.0105 5.9901 16.4498 10.1006 16.5215C11.462 16.5215 15.3391 15.0902 14.9014 11.469C14.9014 10.1076 14.167 6.77662 10.1006 6.70498Z" fill="#1976D2"/>
<path d="M16.3377 17.2227C16.3377 15.8738 15.8885 14.5724 15.0765 13.5691C14.2645 12.5658 13.1471 11.9315 11.9393 11.7881L11.4162 17.2227H16.3377Z" fill="#BBDEFB"/>
<path d="M3.94568 17.2227C3.94568 15.8767 4.39648 14.578 5.2117 13.5755C6.02693 12.573 7.14923 11.9372 8.36357 11.7899L8.90639 17.2227H3.94568Z" fill="#BBDEFB"/>
<rect x="8.69067" y="10.3076" width="2.98034" height="7.5226" rx="1.49017" fill="#BBDEFB"/>
<rect x="3.20056" y="17.8691" width="13.9998" height="0.940315" rx="0.470158" fill="#2196F3"/>
<ellipse cx="10.2005" cy="15.0092" rx="2.29409" ry="2.42916" fill="#2196F3"/>
<path fill-rule="evenodd" clip-rule="evenodd" d="M8.30976 16.8115H3.94526C3.6856 16.8115 3.4751 17.022 3.4751 17.2817C3.4751 17.5414 3.6856 17.7519 3.94526 17.7519H10.1912C9.43387 17.7489 8.75748 17.3835 8.30976 16.8115ZM10.2098 17.7519H16.4557C16.7154 17.7519 16.9259 17.5414 16.9259 17.2817C16.9259 17.022 16.7154 16.8115 16.4557 16.8115H12.0912C11.6435 17.3835 10.9671 17.7489 10.2098 17.7519Z" fill="#2196F3"/>
<ellipse cx="10.2201" cy="15.048" rx="1.5686" ry="1.68475" fill="#E3F2FD"/>
</g>
<defs>
<clipPath id="clip0_505_3504">
<rect width="20" height="20" fill="white"/>
</clipPath>
</defs>
</svg>
