<svg width="16" height="16" viewBox="0 0 16 16" fill="none" xmlns="http://www.w3.org/2000/svg">
<path d="M11.3138 10.0596H10.6555L10.4221 9.83464C11.4221 8.66798 11.9388 7.07631 11.6555 5.38464C11.2638 3.06798 9.33046 1.21798 6.99713 0.934644C3.47213 0.501311 0.505461 3.46798 0.938794 6.99298C1.22213 9.32631 3.07213 11.2596 5.38879 11.6513C7.08046 11.9346 8.67213 11.418 9.83879 10.418L10.0638 10.6513V11.3096L13.6055 14.8513C13.9471 15.193 14.5055 15.193 14.8471 14.8513C15.1888 14.5096 15.1888 13.9513 14.8471 13.6096L11.3138 10.0596ZM6.31379 10.0596C4.23879 10.0596 2.56379 8.38464 2.56379 6.30964C2.56379 4.23464 4.23879 2.55964 6.31379 2.55964C8.38879 2.55964 10.0638 4.23464 10.0638 6.30964C10.0638 8.38464 8.38879 10.0596 6.31379 10.0596Z" fill="#637381"/>
</svg>
