<svg width="33" height="32" viewBox="0 0 33 32" fill="none" xmlns="http://www.w3.org/2000/svg">
<g id="rate_review">
<path id="Vector" d="M27.1666 2.66669H5.83329C4.36663 2.66669 3.17996 3.86669 3.17996 5.33335L3.16663 29.3334L8.49996 24H27.1666C28.6333 24 29.8333 22.8 29.8333 21.3334V5.33335C29.8333 3.86669 28.6333 2.66669 27.1666 2.66669ZM27.1666 21.3334H7.39329L5.83329 22.8934V5.33335H27.1666V21.3334ZM14.5 18.6667H24.5V16H17.1666L14.5 18.6667ZM19.6466 10.84C19.9133 10.5734 19.9133 10.16 19.6466 9.89335L17.2866 7.53335C17.02 7.26669 16.6066 7.26669 16.34 7.53335L8.49996 15.3734V18.6667H11.7933L19.6466 10.84Z" fill="white"/>
</g>
</svg>
