<?xml version="1.0" encoding="UTF-8"?>
<!DOCTYPE svg PUBLIC "-//W3C//DTD SVG 1.1//EN" "http://www.w3.org/Graphics/SVG/1.1/DTD/svg11.dtd">
<svg xmlns="http://www.w3.org/2000/svg" version="1.1" width="12px" height="12px" style="shape-rendering:geometricPrecision; text-rendering:geometricPrecision; image-rendering:optimizeQuality; fill-rule:evenodd; clip-rule:evenodd" xmlns:xlink="http://www.w3.org/1999/xlink">
<g><path style="opacity:1" fill="#6aeb73" d="M -0.5,-0.5 C 2.83333,-0.5 6.16667,-0.5 9.5,-0.5C 9.83333,0.5 10.5,1.16667 11.5,1.5C 11.5,4.83333 11.5,8.16667 11.5,11.5C 7.5,11.5 3.5,11.5 -0.5,11.5C -0.5,7.5 -0.5,3.5 -0.5,-0.5 Z"/></g>
<g><path style="opacity:1" fill="#defae0" d="M 9.5,-0.5 C 10.1667,-0.5 10.8333,-0.5 11.5,-0.5C 11.5,0.166667 11.5,0.833333 11.5,1.5C 10.5,1.16667 9.83333,0.5 9.5,-0.5 Z"/></g>
<g><path style="opacity:1" fill="#fafefa" d="M 2.5,0.5 C 3.83333,0.5 5.16667,0.5 6.5,0.5C 6.5,1.5 6.5,2.5 6.5,3.5C 5.16667,3.5 3.83333,3.5 2.5,3.5C 2.5,2.5 2.5,1.5 2.5,0.5 Z"/></g>
<g><path style="opacity:1" fill="#f7fdf7" d="M 0.5,5.5 C 3.83333,5.5 7.16667,5.5 10.5,5.5C 10.5,7.16667 10.5,8.83333 10.5,10.5C 7.16667,10.5 3.83333,10.5 0.5,10.5C 0.5,8.83333 0.5,7.16667 0.5,5.5 Z"/></g>
</svg>
