<svg width="10" height="10" viewBox="0 0 10 10" fill="none" xmlns="http://www.w3.org/2000/svg">
<path d="M2.08325 3.75016C2.08325 3.52005 2.2698 3.3335 2.49992 3.3335H7.49992C7.73004 3.3335 7.91659 3.52005 7.91659 3.75016V7.50016C7.91659 8.19054 7.35696 8.75016 6.66659 8.75016H3.33325C2.6429 8.75016 2.08325 8.19054 2.08325 7.50016V3.75016Z" fill="#2196F3"/>
<path opacity="0.5" d="M2.08325 2.08317C2.08325 1.85305 2.2698 1.6665 2.49992 1.6665H7.49992C7.73004 1.6665 7.91659 1.85305 7.91659 2.08317C7.91659 2.31329 7.73004 2.49984 7.49992 2.49984H2.49992C2.2698 2.49984 2.08325 2.31329 2.08325 2.08317Z" fill="#2196F3"/>
<path opacity="0.5" d="M3.75 1.66667C3.75 1.43655 3.93655 1.25 4.16667 1.25H5.83333C6.06346 1.25 6.25 1.43655 6.25 1.66667H3.75Z" fill="#2196F3"/>
</svg>
