<svg width="20" height="21" viewBox="0 0 20 21" fill="none" xmlns="http://www.w3.org/2000/svg">
<path d="M17.7799 14.9507C17.7799 14.8127 17.7087 14.6792 17.5923 14.6075L16.5263 13.9509C16.5746 13.6723 16.602 13.3674 16.602 13.0965C16.602 12.8257 16.5736 12.5196 16.5256 12.2422L17.5916 11.5856C17.7081 11.5139 17.7792 11.3804 17.7792 11.2423C17.7792 10.8983 16.8191 8.82604 16.3187 8.82604C16.254 8.82604 16.1886 8.84377 16.1301 8.87979L15.0616 9.53803C14.6557 9.16809 14.1869 8.87825 13.6746 8.68453V7.37001C13.6746 7.18646 13.5565 7.02161 13.388 6.98404C13.0068 6.89906 12.6157 6.85083 12.2109 6.85083C11.8061 6.85083 11.4138 6.89906 11.0335 6.98406C10.8661 7.02171 10.7472 7.18654 10.7472 7.37001V8.68453C10.2349 8.87825 9.76601 9.16809 9.3612 9.53698L8.29155 8.87971C8.23323 8.8436 8.16782 8.82579 8.10309 8.82579C7.65209 8.82579 6.64258 10.8252 6.64258 11.2421C6.64258 11.3802 6.71375 11.5136 6.83019 11.5854L7.61193 12.2431C7.61193 12.2431 7.61193 12.2431 8.65882 13.2905C8.65882 13.2905 10.7472 15.3879 10.7472 17.3131V18.8221C10.7472 19.0057 10.8652 19.1705 11.0337 19.2081C11.415 19.2935 11.8061 19.3423 12.1903 19.3423C12.5745 19.3423 12.9873 19.294 13.3677 19.209C13.5557 19.1495 13.6746 19.0056 13.6746 18.8226V17.5081C14.1874 17.3144 14.6564 17.0245 15.0617 16.6549L16.1302 17.3131C16.1887 17.3492 16.2541 17.3669 16.3188 17.3669C16.769 17.3661 17.7799 15.3679 17.7799 14.9507ZM12.2109 15.0483C11.2021 15.0483 10.3812 14.1727 10.3812 13.0965C10.3812 12.0204 11.2023 11.1448 12.2109 11.1448C13.2195 11.1448 14.0405 12.0204 14.0405 13.0965C14.0405 14.1727 13.2195 15.0483 12.2109 15.0483Z" fill="#E0E0E0"/>
<path d="M10.0596 18.2682C10.0596 18.0473 9.88048 17.8682 9.65957 17.8682H7.43036C7.20944 17.8682 7.03036 18.0473 7.03036 18.2682V19.4078C7.03036 19.6287 7.20944 19.8078 7.43036 19.8078H9.65957C9.88048 19.8078 10.0596 19.6287 10.0596 19.4078V18.2682Z" fill="#9E9E9E"/>
<path d="M6.37598 18.2682C6.37598 18.0473 6.19689 17.8682 5.97598 17.8682H3.74676C3.52585 17.8682 3.34676 18.0473 3.34676 18.2682V19.4078C3.34676 19.6287 3.52585 19.8078 3.74676 19.8078H5.97598C6.19689 19.8078 6.37598 19.6287 6.37598 19.4078V18.2682Z" fill="#9E9E9E"/>
<path d="M6.37598 15.8629C6.37598 15.642 6.19689 15.4629 5.97598 15.4629H3.74676C3.52585 15.4629 3.34676 15.642 3.34676 15.8629V17.0026C3.34676 17.2235 3.52585 17.4026 3.74676 17.4026H5.97598C6.19689 17.4026 6.37598 17.2235 6.37598 17.0026V15.8629Z" fill="#9E9E9E"/>
<path d="M10.0596 15.8629C10.0596 15.642 9.88048 15.4629 9.65957 15.4629H7.43035C7.20944 15.4629 7.03035 15.642 7.03035 15.8629V17.0026C7.03035 17.2235 7.20944 17.4026 7.43035 17.4026H9.65957C9.88048 17.4026 10.0596 17.2235 10.0596 17.0026V15.8629Z" fill="#9E9E9E"/>
<path d="M5.60809 13.0579H7.8373C8.05822 13.0579 8.2373 13.2369 8.2373 13.4579V14.5975C8.2373 14.8184 8.05822 14.9975 7.8373 14.9975H5.60809C5.38717 14.9975 5.20809 14.8184 5.20809 14.5975V13.4579C5.20809 13.2369 5.38718 13.0579 5.60809 13.0579Z" fill="#9E9E9E"/>
<path d="M19.7039 10.929C19.7039 5.55163 15.3446 1.19237 9.96716 1.19237C4.58973 1.19237 0.230468 5.55163 0.230468 10.929C0.230469 13.5476 1.26413 15.9247 2.94567 17.6746C1.87071 16.1849 1.23425 14.3365 1.23425 12.3343C1.23425 7.40042 5.09917 3.40069 9.86678 3.40069C14.6344 3.40069 18.4993 7.40042 18.4993 12.3343C18.4993 14.6872 17.6204 16.8276 16.1838 18.4231C18.3344 16.6371 19.7039 13.943 19.7039 10.929Z" fill="#BDBDBD"/>
</svg>
