<svg width="25" height="24" viewBox="0 0 25 24" fill="none" xmlns="http://www.w3.org/2000/svg">
<path d="M16.4772 14.4716H15.6872L15.4072 14.2016C16.6072 12.8016 17.2272 10.8916 16.8872 8.86157C16.4172 6.08157 14.0972 3.86157 11.2972 3.52157C7.06719 3.00157 3.50719 6.56157 4.02719 10.7916C4.36719 13.5916 6.58719 15.9116 9.36719 16.3816C11.3972 16.7216 13.3072 16.1016 14.7072 14.9016L14.9772 15.1816V15.9716L19.2272 20.2216C19.6372 20.6316 20.3072 20.6316 20.7172 20.2216C21.1272 19.8116 21.1272 19.1416 20.7172 18.7316L16.4772 14.4716ZM10.4772 14.4716C7.98719 14.4716 5.97719 12.4616 5.97719 9.97157C5.97719 7.48157 7.98719 5.47157 10.4772 5.47157C12.9672 5.47157 14.9772 7.48157 14.9772 9.97157C14.9772 12.4616 12.9672 14.4716 10.4772 14.4716Z" fill="#637381"/>
</svg>
