<svg width="16" height="16" viewBox="0 0 16 16" fill="none" xmlns="http://www.w3.org/2000/svg">
<path opacity="0.3" d="M8.01659 3.15C6.48325 1.61667 4.01659 1.61667 2.48325 3.15C0.949919 4.68333 0.949919 7.15 2.48325 8.68333L7.54992 13.75C7.81659 14.0167 8.21659 14.0167 8.48325 13.75L13.5499 8.68333C15.0833 7.15 15.0833 4.68333 13.5499 3.15C12.0166 1.61667 9.54992 1.61667 8.01659 3.15Z" fill="#1565C0"/>
<path d="M9.35008 11.4166H9.28341C9.01675 11.3499 8.75008 11.1499 8.68341 10.8833L7.95008 7.41659L7.35008 9.54992C7.28341 9.81659 7.08341 10.0166 6.81675 10.0166C6.55008 10.0833 6.28341 9.94992 6.15008 9.74992L5.15008 8.21659L4.35008 8.61659C4.28341 8.68326 4.15008 8.68325 4.08341 8.68325H2.08341C1.68341 8.68325 1.41675 8.41659 1.41675 8.01659C1.41675 7.61659 1.68341 7.34992 2.08341 7.34992H3.95008L5.15008 6.74992C5.48341 6.61659 5.81675 6.68325 6.01675 6.94992L6.55008 7.74992L7.48341 4.48324C7.55008 4.21657 7.81675 4.0166 8.15008 4.0166C8.48341 4.0166 8.68341 4.21655 8.75008 4.54989L9.68341 8.68325L10.1501 7.68325C10.2834 7.48325 10.4834 7.28326 10.7501 7.28326H14.0834C14.4834 7.28326 14.7501 7.54992 14.7501 7.94992C14.7501 8.34992 14.4834 8.61659 14.0834 8.61659H11.1501L10.0167 10.8833C9.81675 11.2833 9.61675 11.4166 9.35008 11.4166Z" fill="#1565C0"/>
</svg>
