<svg width="35" height="30" viewBox="0 0 35 30" fill="none" xmlns="http://www.w3.org/2000/svg">
<path fill-rule="evenodd" clip-rule="evenodd" d="M23.0211 1.04788C22.2838 0.373805 21.321 0 20.322 0H14.678C13.679 0 12.7162 0.373805 11.9789 1.04788L9.89612 2.95212C9.15885 3.6262 8.19603 4 7.19705 4H6C2.68629 4 0 6.68629 0 10V23.75C0 27.0637 2.68629 29.75 6 29.75H29C32.3137 29.75 35 27.0637 35 23.75V10C35 6.68629 32.3137 4 29 4H27.803C26.804 4 25.8412 3.6262 25.1039 2.95212L23.0211 1.04788ZM14.678 2H20.322C20.8215 2 21.3029 2.1869 21.6716 2.52394L23.7543 4.42817C24.8603 5.43929 26.3045 6 27.803 6H29C31.2091 6 33 7.79086 33 10V23.75C33 25.9591 31.2091 27.75 29 27.75H6C3.79086 27.75 2 25.9591 2 23.75V10C2 7.79086 3.79086 6 6 6H7.19705C8.69552 6 10.1397 5.43929 11.2457 4.42817L13.3284 2.52394C13.6971 2.1869 14.1785 2 14.678 2ZM11.2964 12.0317C11.3497 12.0677 11.3956 12.1136 11.4315 12.1669L13.2634 14.8846C13.4178 15.1136 13.3573 15.4243 13.1283 15.5786C13.0457 15.6343 12.9484 15.664 12.8488 15.664L11.7694 15.6646C12.0119 18.7982 14.5021 21.25 17.5221 21.25C18.6217 21.25 19.6746 20.9258 20.5859 20.3223C20.9313 20.0937 21.3966 20.1882 21.6253 20.5336C21.854 20.879 21.7594 21.3443 21.4141 21.573C20.2598 22.3373 18.9195 22.75 17.5221 22.75C13.66 22.75 10.5132 19.6141 10.2657 15.6641L9.18501 15.664C8.90887 15.664 8.68501 15.4402 8.68501 15.164C8.68501 15.0645 8.71474 14.9671 8.7704 14.8846L10.6023 12.1669C10.7567 11.9379 11.0674 11.8774 11.2964 12.0317ZM24.6543 15.1884C24.4068 11.2384 21.26 8.1025 17.3979 8.1025C16.0005 8.1025 14.6602 8.51517 13.5059 9.27949C13.1606 9.50818 13.066 9.97353 13.2947 10.3189C13.5234 10.6643 13.9887 10.7588 14.3341 10.5302C15.2454 9.9267 16.2983 9.6025 17.3979 9.6025C20.4179 9.6025 22.9081 12.0543 23.1506 15.1879L22.0712 15.1885C21.9716 15.1885 21.8743 15.2182 21.7917 15.2738C21.5627 15.4282 21.5022 15.7389 21.6566 15.9679L23.4885 18.6856C23.5244 18.7389 23.5703 18.7848 23.6236 18.8208C23.8526 18.9751 24.1633 18.9146 24.3177 18.6856L26.1496 15.9679C26.2053 15.8853 26.235 15.788 26.235 15.6885C26.235 15.4123 26.0111 15.1885 25.735 15.1885L24.6543 15.1884Z" fill="white"/>
</svg>
