<svg width="20" height="20" viewBox="0 0 20 20" fill="none" xmlns="http://www.w3.org/2000/svg">
<path d="M13.9455 3.03794C13.9455 3.61118 13.4808 4.07588 12.9076 4.07588C12.3343 4.07588 11.8696 3.61118 11.8696 3.03794C11.8696 2.4647 12.3343 2 12.9076 2C13.4808 2 13.9455 2.4647 13.9455 3.03794Z" fill="#DA4141"/>
<path fill-rule="evenodd" clip-rule="evenodd" d="M9.39862 7.92358C9.23071 7.82497 9.05892 7.72156 8.8808 7.61347C8.61805 7.45403 8.28785 7.45638 8.02741 7.61955C6.91067 8.31919 6.03526 8.84526 4.65537 9.127C4.27818 9.20402 4.00672 9.53502 4.00503 9.91999C4.00372 10.2175 4.00225 10.6055 4.00124 11.0272C3.99901 11.9519 3.99901 13.0403 4.00792 13.6897C4.01321 14.075 4.15222 14.482 4.35582 14.8622C4.56607 15.2547 4.87265 15.6704 5.27712 16.0824L5.83885 15.5311L5.27712 16.0824C5.99636 16.8152 6.98735 17.4951 8.16699 17.9458C8.58643 18.106 9.05635 17.8959 9.21659 17.4765C9.37683 17.0571 9.16672 16.5871 8.74729 16.4269C7.78669 16.0599 6.99341 15.5098 6.43752 14.9435C6.12537 14.6254 5.91657 14.3324 5.78916 14.0945C5.6551 13.8442 5.63418 13.699 5.63375 13.6673C5.62504 13.0331 5.62498 11.9575 5.62721 11.0311C5.6276 10.8697 5.62805 10.7132 5.62854 10.5648C6.76779 10.2494 7.62536 9.77755 8.46611 9.26142C8.74605 9.42756 9.02435 9.58706 9.30921 9.73721V15.9219C9.30921 16.5153 9.49615 17.0396 9.85263 17.4235C10.2057 17.8037 10.6842 17.9993 11.1659 17.9993C11.6476 17.9993 12.1261 17.8037 12.4792 17.4235C12.8346 17.0408 13.0215 16.5185 13.0226 15.9274L13.0504 13.6933C13.0504 13.6916 13.0504 13.6898 13.0504 13.688C13.0549 12.9415 13.0549 11.854 13.0538 10.9537C13.0533 10.5623 13.0526 10.206 13.052 9.9284C13.0511 9.53961 12.775 9.20585 12.3933 9.13204C11.8517 9.02731 11.3819 8.88471 10.9386 8.70625C10.9717 7.94852 11.2409 7.44064 11.5747 7.11845C11.9408 6.76505 12.4402 6.58118 12.9574 6.58502C13.475 6.58886 13.9796 6.78072 14.3506 7.14072C14.7118 7.49119 14.9916 8.04482 14.9916 8.86534V17.102C14.9916 17.551 15.3556 17.915 15.8046 17.915C16.2536 17.915 16.6176 17.551 16.6176 17.102V8.86534C16.6176 7.64473 16.1871 6.65699 15.4828 5.97374C14.7884 5.30001 13.8724 4.96578 12.9694 4.95909C12.066 4.95239 11.1448 5.27353 10.4454 5.94859C9.92672 6.4493 9.55871 7.11682 9.39862 7.92358ZM10.9352 10.4336C11.0941 10.4852 11.2578 10.5335 11.4272 10.5784C11.4274 10.6992 11.4276 10.8255 11.4278 10.9557C11.4289 11.855 11.4289 12.9357 11.4245 13.6757L11.3967 15.9118C11.3967 15.9133 11.3967 15.9147 11.3967 15.9161C11.3967 15.918 11.3967 15.92 11.3967 15.9219C11.3967 16.1715 11.3227 16.2794 11.2877 16.317C11.2495 16.3582 11.2061 16.3733 11.1659 16.3733C11.1257 16.3733 11.0824 16.3582 11.0441 16.317C11.0092 16.2794 10.9352 16.1715 10.9352 15.9219V10.4336Z" fill="#41C977"/>
<path fill-rule="evenodd" clip-rule="evenodd" d="M11.5609 7.13161C11.2112 7.47625 10.9351 8.02888 10.9351 8.86512V15.9217H9.30908V8.86512C9.30908 7.64403 9.72563 6.65753 10.4194 5.97364C11.1044 5.29843 12.0091 4.96849 12.9016 4.95898L12.9189 6.58487C12.4087 6.5903 11.9193 6.77829 11.5609 7.13161Z" fill="url(#paint0_linear_403_7405)"/>
<path fill-rule="evenodd" clip-rule="evenodd" d="M7.76408 7.88743C7.99701 7.50358 8.49702 7.38124 8.88087 7.61418C10.0882 8.34685 11.0047 8.86423 12.3934 9.13274C12.8342 9.21798 13.1225 9.64445 13.0372 10.0853C12.952 10.5261 12.5255 10.8144 12.0847 10.7292C10.3956 10.4025 9.27146 9.75314 8.03734 9.00423C7.65348 8.77129 7.53114 8.27129 7.76408 7.88743Z" fill="#41C977"/>
<defs>
<linearGradient id="paint0_linear_403_7405" x1="9.75578" y1="10.7635" x2="10.5843" y2="7.80404" gradientUnits="userSpaceOnUse">
<stop stop-opacity="0.01"/>
<stop offset="0.543097" stop-opacity="0.5"/>
<stop offset="1" stop-opacity="0.01"/>
</linearGradient>
</defs>
</svg>
