<svg width="24" height="24" viewBox="0 0 24 24" fill="none" xmlns="http://www.w3.org/2000/svg">
<path d="M19.8836 17.9603C20.3636 17.1903 20.6336 16.2903 20.5736 15.3003C20.4436 13.1503 18.7336 11.3303 16.6036 11.1003C13.8836 10.8003 11.5836 12.9103 11.5836 15.5703C11.5836 18.0603 13.5936 20.0703 16.0736 20.0703C16.9536 20.0703 17.7736 19.8103 18.4636 19.3703L20.8736 21.7803C21.2636 22.1703 21.9036 22.1703 22.2936 21.7803C22.6836 21.3903 22.6836 20.7503 22.2936 20.3603L19.8836 17.9603ZM16.0836 18.0703C14.7036 18.0703 13.5836 16.9503 13.5836 15.5703C13.5836 14.1903 14.7036 13.0703 16.0836 13.0703C17.4636 13.0703 18.5836 14.1903 18.5836 15.5703C18.5836 16.9503 17.4636 18.0703 16.0836 18.0703ZM15.7236 9.57029C14.9836 9.59029 14.2736 9.75029 13.6236 10.0203L13.0736 9.19029L9.99365 14.2003C9.63365 14.7803 8.82365 14.8403 8.38365 14.3303L6.26365 11.8603L3.20365 16.7603C2.89365 17.2503 2.23365 17.3803 1.76365 17.0403C1.34365 16.7303 1.22365 16.1503 1.50365 15.7003L5.28365 9.65029C5.64365 9.08029 6.45365 9.02029 6.89365 9.53029L9.00365 11.9903L12.1836 6.82029C12.5636 6.20029 13.4636 6.18029 13.8636 6.79029L15.7236 9.57029ZM18.3136 10.0703C17.6736 9.79029 16.9836 9.62029 16.2636 9.58029L20.8036 2.39029C21.1136 1.90029 21.7736 1.78029 22.2336 2.12029C22.6636 2.43029 22.7736 3.02029 22.4936 3.46029L18.3136 10.0703Z" fill="#919EAB"/>
</svg>
