<svg width="388" height="486" viewBox="0 0 388 486" fill="none" xmlns="http://www.w3.org/2000/svg">
<path fill-rule="evenodd" clip-rule="evenodd" d="M232.801 25.2355C240.648 29.6705 245.5 37.9863 245.5 47V96.0648L275.688 78.0484C283.413 73.438 293.02 73.3338 300.843 77.7754C308.666 82.2171 313.5 90.5196 313.5 99.5159V151.837L350.43 130.872C358.169 126.479 367.66 126.53 375.351 131.008C383.041 135.486 387.772 143.714 387.772 152.613V365.573C387.772 374.587 382.919 382.904 375.07 387.338L206.184 482.764C198.552 487.077 189.22 487.077 181.588 482.764L12.7017 387.34C4.85324 382.905 0 374.588 0 365.574V164.709C0 155.941 4.59322 147.814 12.1047 143.292L207.605 25.5825C215.327 20.9331 224.954 20.8005 232.801 25.2355ZM263.5 180.221V143.55L245.5 154.292V190.439L263.5 180.221ZM245.5 247.934L263.5 237.716V302.974L214.051 331.161V301.108L233.015 290.142C240.741 285.674 245.5 277.426 245.5 268.5V247.934ZM195.5 218.824V184.133L131.851 222.119L131.547 291.059L164.051 272.263V251.232C164.051 242.236 168.885 233.933 176.709 229.491L195.5 218.824ZM164.051 330.021V374.187C164.051 383.094 168.79 391.329 176.491 395.803C184.192 400.278 193.693 400.317 201.431 395.907L300.88 339.219C308.683 334.772 313.5 326.481 313.5 317.5V209.332L337.772 195.553V350.984L193.886 432.284L50 350.985V178.838L195.5 91.234V125.905L94.1012 186.421C86.5761 190.912 81.9519 199.015 81.9134 207.778L81.3563 334.395C81.3169 343.349 86.0695 351.641 93.8159 356.132C101.562 360.624 111.119 360.629 118.871 356.147L164.051 330.021Z" fill="#FC9713"/>
<path fill-rule="evenodd" clip-rule="evenodd" d="M248.619 251.201C255.688 263.062 251.803 278.407 239.943 285.475L142.799 343.371C130.938 350.44 115.593 346.555 108.525 334.695C101.456 322.834 105.341 307.489 117.201 300.42L214.345 242.525C226.205 235.456 241.551 239.341 248.619 251.201Z" fill="url(#paint0_linear_62_17136)"/>
<path fill-rule="evenodd" clip-rule="evenodd" d="M246 52V264.609H196V52H246Z" fill="url(#paint1_linear_62_17136)"/>
<path fill-rule="evenodd" clip-rule="evenodd" d="M246 158V341H196V158H246Z" fill="url(#paint2_linear_62_17136)"/>
<path fill-rule="evenodd" clip-rule="evenodd" d="M314 99.0294V311.638H264V99.0294H314Z" fill="url(#paint3_linear_62_17136)"/>
<path fill-rule="evenodd" clip-rule="evenodd" d="M301.313 120.983L119.726 229.356L94.1025 186.421L275.689 78.0485L301.313 120.983Z" fill="#FC9713"/>
<path fill-rule="evenodd" clip-rule="evenodd" d="M214 262.778L374.8 174.529L350.744 130.697L176.972 226.064C168.972 230.455 164 238.855 164 247.981V377.5H214V262.778Z" fill="#FC9713"/>
<path d="M378.835 31.9174C378.835 49.5449 364.545 63.8349 346.917 63.8349C329.29 63.8349 315 49.5449 315 31.9174C315 14.2899 329.29 0 346.917 0C364.545 0 378.835 14.2899 378.835 31.9174Z" fill="#41C977"/>
<defs>
<linearGradient id="paint0_linear_62_17136" x1="143.144" y1="298.056" x2="227.644" y2="297.542" gradientUnits="userSpaceOnUse">
<stop stop-opacity="0.01"/>
<stop offset="0.507997" stop-opacity="0.5"/>
<stop offset="1" stop-opacity="0.01"/>
</linearGradient>
<linearGradient id="paint1_linear_62_17136" x1="199" y1="96.9248" x2="234.659" y2="193.63" gradientUnits="userSpaceOnUse">
<stop stop-opacity="0.01"/>
<stop offset="0.515625" stop-opacity="0.5"/>
<stop offset="1" stop-opacity="0.01"/>
</linearGradient>
<linearGradient id="paint2_linear_62_17136" x1="199" y1="196.668" x2="226.264" y2="282.57" gradientUnits="userSpaceOnUse">
<stop stop-opacity="0.01"/>
<stop offset="0.515625" stop-opacity="0.5"/>
<stop offset="1" stop-opacity="0.01"/>
</linearGradient>
<linearGradient id="paint3_linear_62_17136" x1="267" y1="143.954" x2="302.659" y2="240.659" gradientUnits="userSpaceOnUse">
<stop stop-opacity="0.01"/>
<stop offset="0.515625" stop-opacity="0.5"/>
<stop offset="1" stop-opacity="0.01"/>
</linearGradient>
</defs>
</svg>
