<svg width="30" height="30" viewBox="0 0 30 30" fill="none" xmlns="http://www.w3.org/2000/svg">
<path opacity="0.5" d="M17.4393 14.7613L22.6697 9.34416C23.1874 8.8079 23.1874 7.93845 22.6697 7.40219C22.1519 6.86594 21.3124 6.86594 20.7947 7.40219L13.8662 14.5782C13.378 15.0838 13.378 15.9036 13.8662 16.4091L20.7947 23.5852C21.3124 24.1214 22.1519 24.1214 22.6697 23.5852C23.1874 23.049 23.1874 22.1795 22.6697 21.6432L17.4393 16.2261C17.0488 15.8216 17.0488 15.1658 17.4393 14.7613Z" fill="#00375E"/>
<path d="M9.93932 14.7613L15.1697 9.34416C15.6874 8.8079 15.6874 7.93845 15.1697 7.40219C14.6519 6.86594 13.8124 6.86594 13.2947 7.40219L6.36612 14.5782C5.87796 15.0838 5.87796 15.9036 6.36612 16.4091L13.2947 23.5852C13.8124 24.1214 14.6519 24.1214 15.1697 23.5852C15.6874 23.049 15.6874 22.1795 15.1697 21.6432L9.93932 16.2261C9.54882 15.8216 9.54882 15.1658 9.93932 14.7613Z" fill="#00375E"/>
</svg>
