<svg width="20" height="21" viewBox="0 0 20 21" fill="none" xmlns="http://www.w3.org/2000/svg">
<rect y="0.5" width="20" height="20" rx="3" fill="#F3F6F9"/>
<path d="M7.08325 8.75016C7.08325 8.52005 7.2698 8.3335 7.49992 8.3335H12.4999C12.73 8.3335 12.9166 8.52005 12.9166 8.75016V12.5002C12.9166 13.1905 12.357 13.7502 11.6666 13.7502H8.33325C7.6429 13.7502 7.08325 13.1905 7.08325 12.5002V8.75016Z" fill="#2196F3"/>
<path opacity="0.5" d="M7.08325 7.08317C7.08325 6.85305 7.2698 6.6665 7.49992 6.6665H12.4999C12.73 6.6665 12.9166 6.85305 12.9166 7.08317C12.9166 7.31329 12.73 7.49984 12.4999 7.49984H7.49992C7.2698 7.49984 7.08325 7.31329 7.08325 7.08317Z" fill="#2196F3"/>
<path opacity="0.5" d="M8.75 6.66667C8.75 6.43655 8.93655 6.25 9.16667 6.25H10.8333C11.0635 6.25 11.25 6.43655 11.25 6.66667H8.75Z" fill="#2196F3"/>
</svg>
