<svg width="18" height="16" viewBox="0 0 18 16" fill="none" xmlns="http://www.w3.org/2000/svg">
<path d="M14.8333 4.66667H3.16666C1.78332 4.66667 0.666656 5.78333 0.666656 7.16667V10.5C0.666656 11.4167 1.41666 12.1667 2.33332 12.1667H3.99999V13.8333C3.99999 14.75 4.74999 15.5 5.66666 15.5H12.3333C13.25 15.5 14 14.75 14 13.8333V12.1667H15.6667C16.5833 12.1667 17.3333 11.4167 17.3333 10.5V7.16667C17.3333 5.78333 16.2167 4.66667 14.8333 4.66667ZM11.5 13.8333H6.49999C6.04166 13.8333 5.66666 13.4583 5.66666 13V9.66667H12.3333V13C12.3333 13.4583 11.9583 13.8333 11.5 13.8333ZM14.8333 8C14.375 8 14 7.625 14 7.16667C14 6.70833 14.375 6.33333 14.8333 6.33333C15.2917 6.33333 15.6667 6.70833 15.6667 7.16667C15.6667 7.625 15.2917 8 14.8333 8ZM13.1667 0.5H4.83332C4.37499 0.5 3.99999 0.875 3.99999 1.33333V3C3.99999 3.45833 4.37499 3.83333 4.83332 3.83333H13.1667C13.625 3.83333 14 3.45833 14 3V1.33333C14 0.875 13.625 0.5 13.1667 0.5Z" fill="white"/>
</svg>
