<svg width="20" height="21" viewBox="0 0 20 21" fill="none" xmlns="http://www.w3.org/2000/svg">
<rect y="0.5" width="20" height="20" rx="3" fill="#F3F6F9"/>
<path opacity="0.3" fill-rule="evenodd" clip-rule="evenodd" d="M5.83325 6.92999C5.83325 6.32441 6.32417 5.8335 6.92974 5.8335H10.6124C10.8397 5.8335 10.9491 6.11233 10.7823 6.26685L10.1898 6.81608C9.95863 7.03028 9.65517 7.14928 9.34004 7.14928H7.98238C7.52214 7.14928 7.14904 7.52238 7.14904 7.98262V12.0177C7.14904 12.478 7.52214 12.851 7.98238 12.851H12.0175C12.4777 12.851 12.8508 12.478 12.8508 12.0177V10.7301C12.8508 10.3864 12.9923 10.058 13.242 9.82183L13.7448 9.34633C13.9042 9.19562 14.1666 9.30862 14.1666 9.528V13.0703C14.1666 13.6759 13.6757 14.1668 13.0701 14.1668H6.92974C6.32417 14.1668 5.83325 13.6759 5.83325 13.0703V6.92999Z" fill="#2196F3"/>
<path d="M9.55245 9.6619C9.38974 9.49919 9.38974 9.23536 9.55245 9.07263L12.528 6.09711C12.8534 5.77167 13.3811 5.77167 13.7065 6.09711L13.9028 6.29344C14.2283 6.61888 14.2283 7.14652 13.9028 7.47196L10.9273 10.4475C10.7646 10.6102 10.5008 10.6102 10.338 10.4475L9.55245 9.6619Z" fill="#2196F3"/>
<path d="M8.67632 10.0028L8.37011 10.973C8.27718 11.2674 8.52552 11.5571 8.83067 11.5103L9.95714 11.3373C10.1933 11.3011 10.2881 11.0118 10.1191 10.8428L9.1607 9.88439C9.00594 9.72964 8.7422 9.79414 8.67632 10.0028Z" fill="#2196F3"/>
</svg>
