<svg width="17" height="17" viewBox="0 0 17 17" fill="none" xmlns="http://www.w3.org/2000/svg">
<path opacity="0.3" d="M4.4046 1.8335H9.65744C9.8939 1.8335 10.1227 1.91729 10.3032 2.06999L13.479 4.75612C13.7036 4.94613 13.8332 5.22541 13.8332 5.51963V13.8891C13.8332 15.0827 13.8195 15.1668 12.5951 15.1668H4.4046C3.18014 15.1668 3.1665 15.0827 3.1665 13.8891V3.11127C3.1665 1.91758 3.18014 1.8335 4.4046 1.8335Z" fill="#90A4AE"/>
<path fill-rule="evenodd" clip-rule="evenodd" d="M10.4251 8.38711H9.12079V7.04867C9.12079 6.86457 8.97155 6.71533 8.78746 6.71533H8.10526C7.92116 6.71533 7.77193 6.86457 7.77193 7.04867V8.38711H6.46761C6.28352 8.38711 6.13428 8.53635 6.13428 8.72045C6.13428 8.79932 6.16225 8.87564 6.21321 8.93584L8.19196 11.2729C8.31092 11.4134 8.52125 11.4309 8.66175 11.312C8.67581 11.3 8.68885 11.287 8.70076 11.2729L10.6795 8.93584C10.7985 8.79534 10.781 8.58501 10.6405 8.46605C10.5803 8.41508 10.504 8.38711 10.4251 8.38711Z" fill="#90A4AE"/>
</svg>
