<svg width="15" height="15" viewBox="0 0 15 15" fill="none" xmlns="http://www.w3.org/2000/svg">
<path opacity="0.3" d="M3.66071 1.25H8.58526C8.80693 1.25 9.02144 1.32855 9.19069 1.47171L12.1679 3.98996C12.3785 4.16809 12.5 4.42992 12.5 4.70575V12.5521C12.5 13.6712 12.4872 13.75 11.3393 13.75H3.66071C2.51278 13.75 2.5 13.6712 2.5 12.5521V2.44792C2.5 1.32883 2.51278 1.25 3.66071 1.25Z" fill="#90A4AE"/>
<path fill-rule="evenodd" clip-rule="evenodd" d="M5.59449 8.6344H6.81729V9.8892C6.81729 10.0618 6.9572 10.2017 7.12979 10.2017H7.76935C7.94194 10.2017 8.08185 10.0618 8.08185 9.8892V8.6344H9.30464C9.47723 8.6344 9.61714 8.49449 9.61714 8.3219C9.61714 8.24796 9.59092 8.17641 9.54314 8.11998L7.68806 5.92894C7.57654 5.79722 7.37936 5.78085 7.24764 5.89237C7.23446 5.90353 7.22223 5.91576 7.21107 5.92894L5.35599 8.11998C5.24447 8.2517 5.26084 8.44888 5.39256 8.5604C5.449 8.60818 5.52054 8.6344 5.59449 8.6344Z" fill="#90A4AE"/>
</svg>
