<svg id="svg" version="1.1" xmlns="http://www.w3.org/2000/svg" xmlns:xlink="http://www.w3.org/1999/xlink" width="400" height="114.84184914841849" viewBox="0, 0, 400,114.84184914841849"><g id="svgg"><path id="path0" d="M36.863 29.158 C 33.047 30.095,30.591 32.377,29.218 36.260 L 28.750 37.583 28.700 52.333 C 28.667 61.742,28.711 67.548,28.820 68.365 C 29.324 72.158,31.454 75.149,34.748 76.690 C 37.054 77.769,36.511 77.727,48.792 77.791 L 60.000 77.849 60.000 78.841 L 60.000 79.833 53.667 79.833 L 47.333 79.833 47.333 83.083 L 47.333 86.333 63.250 86.333 L 79.167 86.333 79.167 83.083 L 79.167 79.833 72.750 79.833 L 66.333 79.833 66.333 78.841 L 66.333 77.849 77.542 77.793 C 87.556 77.744,88.857 77.707,89.750 77.450 C 93.298 76.429,96.143 73.734,97.216 70.377 C 97.573 69.260,97.577 69.106,97.626 53.755 L 97.677 38.260 97.247 36.588 C 96.243 32.677,93.308 29.927,89.242 29.087 C 87.207 28.667,38.595 28.732,36.863 29.158 M89.042 35.812 C 91.414 37.016,91.333 36.400,91.333 53.356 C 91.333 70.096,91.397 69.625,88.957 70.826 L 87.917 71.338 63.000 71.294 C 35.090 71.245,37.648 71.362,36.393 70.070 C 35.171 68.812,35.250 69.978,35.250 53.167 L 35.250 38.083 35.755 37.261 C 37.098 35.075,35.399 35.199,63.675 35.226 L 87.934 35.250 89.042 35.812 M362.500 58.500 L 362.500 77.333 367.000 77.333 L 371.500 77.333 371.500 58.500 L 371.500 39.667 367.000 39.667 L 362.500 39.667 362.500 58.500 M222.667 59.500 L 222.667 77.333 227.083 77.333 L 231.500 77.333 231.500 71.020 L 231.500 64.707 235.708 64.619 C 241.044 64.508,242.714 64.115,245.279 62.368 C 251.728 57.975,251.373 47.200,244.652 43.379 C 242.039 41.893,240.251 41.678,230.458 41.672 L 222.667 41.667 222.667 59.500 M309.167 45.494 L 309.167 48.822 307.458 48.869 L 305.750 48.917 305.705 52.625 L 305.660 56.333 307.413 56.333 L 309.167 56.333 309.180 62.375 C 309.193 68.323,309.230 69.757,309.386 70.417 C 310.591 75.513,313.115 77.141,320.042 77.288 L 323.833 77.369 323.833 73.518 L 323.833 69.667 321.792 69.666 C 318.034 69.666,318.172 69.948,318.169 62.292 L 318.167 56.333 321.003 56.333 L 323.840 56.333 323.795 52.625 L 323.750 48.917 320.958 48.871 L 318.167 48.825 318.167 45.496 L 318.167 42.167 313.667 42.167 L 309.167 42.167 309.167 45.494 M263.417 48.834 C 260.290 49.635,258.294 50.724,256.333 52.697 C 251.243 57.820,251.133 67.949,256.109 73.324 C 260.870 78.466,269.898 79.310,275.976 75.183 C 284.645 69.296,283.794 54.780,274.504 50.084 C 271.474 48.553,266.639 48.008,263.417 48.834 M302.126 48.681 C 299.602 49.079,295.595 51.663,295.300 53.083 C 295.281 53.175,295.224 52.275,295.174 51.083 L 295.083 48.917 290.667 48.917 L 286.250 48.917 286.207 63.125 L 286.165 77.333 290.654 77.333 L 295.143 77.333 295.206 69.792 C 295.259 63.400,295.310 62.127,295.539 61.445 C 296.339 59.059,297.899 58.211,301.792 58.046 L 304.000 57.953 304.000 53.243 L 304.000 48.533 303.458 48.545 C 303.160 48.551,302.561 48.612,302.126 48.681 M335.979 48.821 C 332.646 49.722,329.394 52.515,328.063 55.620 C 327.914 55.967,327.724 56.385,327.639 56.551 C 326.087 59.593,326.478 67.369,328.369 71.056 C 331.985 78.110,341.255 80.070,346.595 74.911 L 347.667 73.876 347.667 75.605 L 347.667 77.333 352.168 77.333 L 356.669 77.333 356.626 63.125 L 356.583 48.917 352.125 48.872 L 347.667 48.828 347.665 50.622 L 347.663 52.417 347.237 51.876 C 345.064 49.119,339.982 47.740,335.979 48.821 M238.461 49.236 C 241.747 50.633,241.571 56.001,238.202 57.161 C 237.832 57.288,236.360 57.407,234.542 57.455 L 231.500 57.537 231.500 53.169 L 231.500 48.802 234.625 48.868 C 237.166 48.921,237.883 48.990,238.461 49.236 M268.382 56.415 C 271.385 57.197,272.750 59.280,272.750 63.083 C 272.750 67.346,270.695 69.856,267.167 69.901 C 261.242 69.976,259.182 60.258,264.430 56.994 C 265.599 56.267,267.017 56.059,268.382 56.415 M344.083 56.842 C 348.961 59.159,348.705 67.627,343.700 69.505 C 337.924 71.674,333.249 64.202,336.985 58.772 C 338.506 56.561,341.676 55.699,344.083 56.842 " stroke="none" fill="#04ac3c" fill-rule="evenodd"></path><path id="path1" d="M125.833 59.667 L 125.833 77.333 128.833 77.333 L 131.833 77.333 131.833 59.667 L 131.833 42.000 128.833 42.000 L 125.833 42.000 125.833 59.667 M151.325 48.843 C 148.948 49.193,146.477 50.687,145.385 52.433 C 145.224 52.690,145.184 52.414,145.176 50.958 L 145.167 49.167 142.167 49.167 L 139.167 49.167 139.167 63.250 L 139.167 77.333 142.167 77.333 L 145.167 77.333 145.170 69.458 C 145.173 60.735,145.301 59.071,146.066 57.765 C 147.141 55.931,149.169 55.000,152.092 55.000 L 153.333 55.000 153.333 51.833 L 153.333 48.667 152.792 48.687 C 152.494 48.698,151.834 48.769,151.325 48.843 M168.243 48.896 C 159.335 50.359,154.561 59.108,157.431 68.713 C 161.316 81.715,181.355 80.521,184.766 67.083 C 187.469 56.432,179.017 47.127,168.243 48.896 M203.083 48.774 C 200.945 49.119,198.864 50.055,197.488 51.292 L 196.667 52.031 196.667 50.599 L 196.667 49.167 193.583 49.167 L 190.500 49.167 190.500 63.250 L 190.500 77.333 193.583 77.333 L 196.667 77.333 196.669 68.875 C 196.672 58.499,196.784 57.830,198.841 55.825 C 200.231 54.472,200.873 54.257,203.500 54.262 C 207.001 54.269,208.596 55.328,209.810 58.452 L 210.249 59.583 210.299 68.458 L 210.350 77.333 213.341 77.333 L 216.333 77.333 216.328 68.208 C 216.320 55.825,216.101 54.820,212.704 51.537 C 210.569 49.474,206.319 48.253,203.083 48.774 M174.266 54.841 C 179.354 57.269,180.562 65.191,176.556 69.855 C 173.362 73.574,167.316 73.323,164.406 69.351 C 162.467 66.703,162.340 60.539,164.164 57.588 C 166.036 54.558,170.902 53.236,174.266 54.841 " stroke="none" fill="#4c4c4c" fill-rule="evenodd"></path><path id="path2" d="M58.978 39.918 C 58.374 40.246,58.559 39.607,55.745 51.130 C 55.057 53.947,54.933 54.307,54.736 54.047 C 54.612 53.883,54.508 53.686,54.505 53.607 C 54.502 53.529,54.269 53.173,53.986 52.816 L 53.472 52.167 48.067 52.167 L 42.662 52.167 42.332 52.708 C 41.890 53.432,41.915 54.141,42.401 54.750 L 42.801 55.250 47.232 55.299 L 51.663 55.349 53.261 57.586 C 55.011 60.037,55.386 60.295,56.518 59.826 C 57.218 59.536,57.326 59.233,58.527 54.208 C 59.102 51.802,59.612 49.833,59.662 49.833 C 59.711 49.833,59.952 51.015,60.197 52.458 C 62.446 65.707,62.502 65.962,63.266 66.310 C 64.876 67.044,65.623 66.143,66.427 62.500 C 67.068 59.597,69.257 51.740,69.371 51.932 C 69.421 52.015,69.702 52.665,69.996 53.375 C 70.862 55.465,70.362 55.333,77.426 55.333 L 83.474 55.333 83.987 54.902 C 84.700 54.302,84.711 53.352,84.013 52.654 L 83.526 52.167 78.269 52.167 L 73.013 52.167 72.760 51.316 C 72.258 49.625,70.449 45.299,70.114 44.987 C 69.877 44.766,69.529 44.667,68.993 44.667 C 67.800 44.667,67.494 45.054,67.012 47.167 C 66.675 48.642,65.919 51.554,64.717 56.000 C 64.581 56.504,64.447 56.939,64.421 56.967 C 64.394 56.994,64.293 56.582,64.196 56.050 C 63.764 53.683,61.502 41.529,61.402 41.038 C 61.178 39.941,59.966 39.381,58.978 39.918 " stroke="none" fill="#fc941c" fill-rule="evenodd"></path><path id="path3" d="M266.877 48.453 C 267.131 48.491,267.506 48.490,267.711 48.451 C 267.916 48.411,267.708 48.380,267.250 48.381 C 266.792 48.382,266.624 48.415,266.877 48.453 M338.792 48.451 C 338.998 48.491,339.335 48.491,339.542 48.451 C 339.748 48.411,339.579 48.379,339.167 48.379 C 338.754 48.379,338.585 48.411,338.792 48.451 M66.387 78.833 C 66.387 79.429,66.417 79.673,66.454 79.375 C 66.491 79.077,66.491 78.590,66.454 78.292 C 66.417 77.994,66.387 78.237,66.387 78.833 " stroke="none" fill="#20b034" fill-rule="evenodd"></path><path id="path4" d="M266.877 48.453 C 267.131 48.491,267.506 48.490,267.711 48.451 C 267.916 48.411,267.708 48.380,267.250 48.381 C 266.792 48.382,266.624 48.415,266.877 48.453 M338.792 48.451 C 338.998 48.491,339.335 48.491,339.542 48.451 C 339.748 48.411,339.579 48.379,339.167 48.379 C 338.754 48.379,338.585 48.411,338.792 48.451 M66.387 78.833 C 66.387 79.429,66.417 79.673,66.454 79.375 C 66.491 79.077,66.491 78.590,66.454 78.292 C 66.417 77.994,66.387 78.237,66.387 78.833 " stroke="none" fill="#20b034" fill-rule="evenodd"></path></g></svg>