<svg width="18" height="18" viewBox="0 0 18 18" fill="none" xmlns="http://www.w3.org/2000/svg">
<path d="M15.9937 10.1109L16.0156 15.7395C16.0156 15.8379 16.0094 15.9293 16 16.0242V16.5938C16 17.3707 15.4406 18 14.75 18H14.25C14.2156 18 14.1813 17.9684 14.1469 17.9965C14.1031 17.9684 14.0594 18 14.0156 18H12.25C11.5594 18 11 17.3707 11 16.5938V13.5C11 12.8777 10.5531 12.375 10 12.375H8C7.44688 12.375 7 12.8777 7 13.5V16.5938C7 17.3707 6.44063 18 5.75 18H4.00313C3.95625 18 3.90937 17.9965 3.8625 17.993C3.825 17.9965 3.7875 18 3.75 18H3.25C2.55969 18 2 17.3707 2 16.5938V12.6562C2 12.6246 2.00094 12.5895 2.00281 12.5578V10.1109H1.00156C0.438125 10.1109 0 9.61523 0 8.98242C0 8.66602 0.093875 8.38477 0.312813 8.13867L8.325 0.281812C8.54375 0.0352266 8.79375 0 9.0125 0C9.23125 0 9.48125 0.0704531 9.67188 0.246586L13 3.54023V2.25C13 1.62879 13.4469 1.125 14 1.125H15C15.5531 1.125 16 1.62879 16 2.25V6.50391L17.65 8.13867C17.9 8.38477 18.0281 8.66602 17.9937 8.98242C17.9937 9.61523 17.525 10.1109 16.9937 10.1109H15.9937Z" fill="#CFD8DC"/>
</svg>
