<svg width="20" height="20" viewBox="0 0 20 20" fill="none" xmlns="http://www.w3.org/2000/svg">
<path d="M10.8352 9.09396V2.51063C10.8352 2.01063 11.2519 1.59396 11.7519 1.6773C13.4185 1.84396 14.9185 2.59399 16.0852 3.84399C17.2519 5.01066 18.0019 6.594 18.2519 8.17733C18.3352 8.67737 17.9185 9.09396 17.4185 9.09396H10.8352Z" fill="#1976D2"/>
<path opacity="0.3" d="M9.1685 11.4273V4.094C9.1685 3.594 8.75183 3.17734 8.25181 3.26067C4.50181 3.76067 1.58516 7.01068 1.66849 10.9273C1.75182 15.0106 5.33515 18.344 9.4185 18.2606C10.9185 18.1773 12.2518 17.7606 13.3352 17.0106C13.7518 16.7606 13.8352 16.094 13.4185 15.7606L9.1685 11.4273Z" fill="#1976D2"/>
<path opacity="0.3" d="M18.2519 11.6773C18.0852 13.0106 17.5852 14.2606 16.7519 15.344C16.4185 15.7606 15.8352 15.7606 15.5019 15.4273L10.8352 10.7606H17.4185C17.9185 10.7606 18.3352 11.1773 18.2519 11.6773Z" fill="#1976D2"/>
</svg>
