<svg width="18" height="18" viewBox="0 0 18 18" fill="none" xmlns="http://www.w3.org/2000/svg">
<path fill-rule="evenodd" clip-rule="evenodd" d="M3.0075 3C3.0075 2.175 3.675 1.5 4.5 1.5H9.8775C10.275 1.5 10.6575 1.6575 10.935 1.9425L14.5575 5.565C14.8425 5.8425 15 6.225 15 6.6225V15C15 15.825 14.325 16.5 13.5 16.5H4.4925C3.6675 16.5 3 15.825 3 15L3.0075 3ZM9.75 2.625V6C9.75 6.4125 10.0875 6.75 10.5 6.75H13.875L9.75 2.625ZM8.95615 13.2374L6.86365 11.1449C6.62365 10.9049 6.78865 10.4999 7.12615 10.4999H8.46865V8.25745C8.46865 7.84495 8.79865 7.51495 9.21115 7.50745C9.63115 7.49995 9.96865 7.83745 9.96865 8.25745V10.4999H11.3112C11.6487 10.4999 11.8137 10.9049 11.5737 11.1374L9.48115 13.2299C9.33865 13.3799 9.09865 13.3799 8.95615 13.2374Z" fill="#000"/>
</svg>
