<svg width="84" height="84" viewBox="0 0 84 84" fill="none" xmlns="http://www.w3.org/2000/svg">
<path d="M41.9997 0.333374C18.9997 0.333374 0.333008 19 0.333008 42C0.333008 65 18.9997 83.6667 41.9997 83.6667C64.9997 83.6667 83.6663 65 83.6663 42C83.6663 19 64.9997 0.333374 41.9997 0.333374ZM30.708 59.875L15.7497 44.9167C14.1247 43.2917 14.1247 40.6667 15.7497 39.0417C17.3747 37.4167 19.9997 37.4167 21.6247 39.0417L33.6663 51.0417L62.333 22.375C63.958 20.75 66.583 20.75 68.208 22.375C69.833 24 69.833 26.625 68.208 28.25L36.583 59.875C34.9997 61.5 32.333 61.5 30.708 59.875Z" fill="#18AF4A"/>
</svg>
