<svg width="16" height="14" viewBox="0 0 16 14" fill="none" xmlns="http://www.w3.org/2000/svg">
<path d="M8 10C9.24264 10 10.25 8.99264 10.25 7.75C10.25 6.50736 9.24264 5.5 8 5.5C6.75736 5.5 5.75 6.50736 5.75 7.75C5.75 8.99264 6.75736 10 8 10Z" fill="#637381"/>
<path d="M14 1.75H11.6225L10.6925 0.7375C10.415 0.43 10.01 0.25 9.59 0.25H6.41C5.99 0.25 5.585 0.43 5.3 0.7375L4.3775 1.75H2C1.175 1.75 0.5 2.425 0.5 3.25V12.25C0.5 13.075 1.175 13.75 2 13.75H14C14.825 13.75 15.5 13.075 15.5 12.25V3.25C15.5 2.425 14.825 1.75 14 1.75ZM8 11.5C5.93 11.5 4.25 9.82 4.25 7.75C4.25 5.68 5.93 4 8 4C10.07 4 11.75 5.68 11.75 7.75C11.75 9.82 10.07 11.5 8 11.5Z" fill="#637381"/>
</svg>
