<svg width="11" height="12" viewBox="0 0 11 12" fill="none" xmlns="http://www.w3.org/2000/svg">
<path d="M10.7501 0.758309C10.4251 0.433309 9.9001 0.433309 9.5751 0.758309L5.5001 4.82498L1.4251 0.749976C1.1001 0.424976 0.575098 0.424976 0.250098 0.749976C-0.0749023 1.07498 -0.0749023 1.59998 0.250098 1.92498L4.3251 5.99998L0.250098 10.075C-0.0749023 10.4 -0.0749023 10.925 0.250098 11.25C0.575098 11.575 1.1001 11.575 1.4251 11.25L5.5001 7.17497L9.5751 11.25C9.9001 11.575 10.4251 11.575 10.7501 11.25C11.0751 10.925 11.0751 10.4 10.7501 10.075L6.6751 5.99998L10.7501 1.92498C11.0668 1.60831 11.0668 1.07498 10.7501 0.758309Z" fill="#212B36"/>
</svg>
