<svg width="14" height="14" viewBox="0 0 14 14" fill="none" xmlns="http://www.w3.org/2000/svg">
<path d="M7.00033 1.16699C3.77449 1.16699 1.16699 3.77449 1.16699 7.00033C1.16699 10.2262 3.77449 12.8337 7.00033 12.8337C10.2262 12.8337 12.8337 10.2262 12.8337 7.00033C12.8337 3.77449 10.2262 1.16699 7.00033 1.16699ZM9.50866 9.50866C9.28116 9.73616 8.91366 9.73616 8.68616 9.50866L7.00033 7.82283L5.31449 9.50866C5.08699 9.73616 4.71949 9.73616 4.49199 9.50866C4.26449 9.28116 4.26449 8.91366 4.49199 8.68616L6.17783 7.00033L4.49199 5.31449C4.26449 5.08699 4.26449 4.71949 4.49199 4.49199C4.71949 4.26449 5.08699 4.26449 5.31449 4.49199L7.00033 6.17783L8.68616 4.49199C8.91366 4.26449 9.28116 4.26449 9.50866 4.49199C9.73616 4.71949 9.73616 5.08699 9.50866 5.31449L7.82283 7.00033L9.50866 8.68616C9.73032 8.90783 9.73032 9.28116 9.50866 9.50866Z" fill="#FE4365"/>
</svg>