<svg width="20" height="20" viewBox="0 0 20 20" fill="none" xmlns="http://www.w3.org/2000/svg">
<rect x="3.33301" y="3.33325" width="5.83333" height="5.83333" rx="1.5" fill="#9E9E9E"/>
<path opacity="0.3" fill-rule="evenodd" clip-rule="evenodd" d="M10.833 4.83325C10.833 4.00483 11.5046 3.33325 12.333 3.33325H15.1663C15.9948 3.33325 16.6663 4.00482 16.6663 4.83325V7.66658C16.6663 8.49501 15.9948 9.16659 15.1663 9.16659H12.333C11.5046 9.16659 10.833 8.49501 10.833 7.66659V4.83325ZM3.33301 12.3333C3.33301 11.5048 4.00458 10.8333 4.83301 10.8333H7.66634C8.49477 10.8333 9.16634 11.5048 9.16634 12.3333V15.1666C9.16634 15.995 8.49477 16.6666 7.66634 16.6666H4.83301C4.00458 16.6666 3.33301 15.995 3.33301 15.1666V12.3333ZM12.333 10.8333C11.5046 10.8333 10.833 11.5048 10.833 12.3333V15.1666C10.833 15.995 11.5046 16.6666 12.333 16.6666H15.1663C15.9948 16.6666 16.6663 15.995 16.6663 15.1666V12.3333C16.6663 11.5048 15.9948 10.8333 15.1663 10.8333H12.333Z" fill="#9E9E9E"/>
</svg>
