<svg width="20" height="21" viewBox="0 0 20 21" fill="none" xmlns="http://www.w3.org/2000/svg">
<path d="M4.24023 8.78881C4.24023 8.41514 4.38891 8.05677 4.65355 7.79255C4.91819 7.52832 5.27712 7.37988 5.65138 7.37988H11.296C11.6702 7.37988 12.0291 7.52832 12.2938 7.79255C12.5584 8.05677 12.7071 8.41514 12.7071 8.78881V17.2424C12.7071 17.616 12.5584 17.9744 12.2938 18.2386C12.0291 18.5028 11.6702 18.6513 11.296 18.6513H5.65138C5.27712 18.6513 4.91819 18.5028 4.65355 18.2386C4.38891 17.9744 4.24023 17.616 4.24023 17.2424V8.78881ZM5.65138 9.14104V10.55C5.65138 10.6434 5.68855 10.733 5.75471 10.799C5.82087 10.8651 5.9106 10.9022 6.00417 10.9022H10.9432C11.0367 10.9022 11.1265 10.8651 11.1926 10.799C11.2588 10.733 11.296 10.6434 11.296 10.55V9.14104C11.296 9.04762 11.2588 8.95803 11.1926 8.89197C11.1265 8.82592 11.0367 8.78881 10.9432 8.78881H6.00417C5.9106 8.78881 5.82087 8.82592 5.75471 8.89197C5.68855 8.95803 5.65138 9.04762 5.65138 9.14104ZM5.65138 11.9589V12.6634C5.65138 12.7568 5.68855 12.8464 5.75471 12.9124C5.82087 12.9785 5.9106 13.0156 6.00417 13.0156H6.70974C6.8033 13.0156 6.89304 12.9785 6.9592 12.9124C7.02536 12.8464 7.06252 12.7568 7.06252 12.6634V11.9589C7.06252 11.8655 7.02536 11.7759 6.9592 11.7098C6.89304 11.6438 6.8033 11.6067 6.70974 11.6067H6.00417C5.9106 11.6067 5.82087 11.6438 5.75471 11.7098C5.68855 11.7759 5.65138 11.8655 5.65138 11.9589ZM6.00417 13.72C5.9106 13.72 5.82087 13.7572 5.75471 13.8232C5.68855 13.8893 5.65138 13.9789 5.65138 14.0723V14.7767C5.65138 14.8702 5.68855 14.9597 5.75471 15.0258C5.82087 15.0919 5.9106 15.129 6.00417 15.129H6.70974C6.8033 15.129 6.89304 15.0919 6.9592 15.0258C7.02536 14.9597 7.06252 14.8702 7.06252 14.7767V14.0723C7.06252 13.9789 7.02536 13.8893 6.9592 13.8232C6.89304 13.7572 6.8033 13.72 6.70974 13.72H6.00417ZM5.65138 16.1857V16.8901C5.65138 16.9835 5.68855 17.0731 5.75471 17.1392C5.82087 17.2052 5.9106 17.2424 6.00417 17.2424H6.70974C6.8033 17.2424 6.89304 17.2052 6.9592 17.1392C7.02536 17.0731 7.06252 16.9835 7.06252 16.8901V16.1857C7.06252 16.0922 7.02536 16.0027 6.9592 15.9366C6.89304 15.8705 6.8033 15.8334 6.70974 15.8334H6.00417C5.9106 15.8334 5.82087 15.8705 5.75471 15.9366C5.68855 16.0027 5.65138 16.0922 5.65138 16.1857ZM8.12088 11.6067C8.02732 11.6067 7.93759 11.6438 7.87143 11.7098C7.80526 11.7759 7.7681 11.8655 7.7681 11.9589V12.6634C7.7681 12.7568 7.80526 12.8464 7.87143 12.9124C7.93759 12.9785 8.02732 13.0156 8.12088 13.0156H8.82646C8.92002 13.0156 9.00975 12.9785 9.07591 12.9124C9.14207 12.8464 9.17924 12.7568 9.17924 12.6634V11.9589C9.17924 11.8655 9.14207 11.7759 9.07591 11.7098C9.00975 11.6438 8.92002 11.6067 8.82646 11.6067H8.12088ZM7.7681 14.0723V14.7767C7.7681 14.8702 7.80526 14.9597 7.87143 15.0258C7.93759 15.0919 8.02732 15.129 8.12088 15.129H8.82646C8.92002 15.129 9.00975 15.0919 9.07591 15.0258C9.14207 14.9597 9.17924 14.8702 9.17924 14.7767V14.0723C9.17924 13.9789 9.14207 13.8893 9.07591 13.8232C9.00975 13.7572 8.92002 13.72 8.82646 13.72H8.12088C8.02732 13.72 7.93759 13.7572 7.87143 13.8232C7.80526 13.8893 7.7681 13.9789 7.7681 14.0723ZM8.12088 15.8334C8.02732 15.8334 7.93759 15.8705 7.87143 15.9366C7.80526 16.0027 7.7681 16.0922 7.7681 16.1857V16.8901C7.7681 16.9835 7.80526 17.0731 7.87143 17.1392C7.93759 17.2052 8.02732 17.2424 8.12088 17.2424H8.82646C8.92002 17.2424 9.00975 17.2052 9.07591 17.1392C9.14207 17.0731 9.17924 16.9835 9.17924 16.8901V16.1857C9.17924 16.0922 9.14207 16.0027 9.07591 15.9366C9.00975 15.8705 8.92002 15.8334 8.82646 15.8334H8.12088ZM9.88481 11.9589V12.6634C9.88481 12.7568 9.92198 12.8464 9.98814 12.9124C10.0543 12.9785 10.144 13.0156 10.2376 13.0156H10.9432C11.0367 13.0156 11.1265 12.9785 11.1926 12.9124C11.2588 12.8464 11.296 12.7568 11.296 12.6634V11.9589C11.296 11.8655 11.2588 11.7759 11.1926 11.7098C11.1265 11.6438 11.0367 11.6067 10.9432 11.6067H10.2376C10.144 11.6067 10.0543 11.6438 9.98814 11.7098C9.92198 11.7759 9.88481 11.8655 9.88481 11.9589ZM10.2376 13.72C10.144 13.72 10.0543 13.7572 9.98814 13.8232C9.92198 13.8893 9.88481 13.9789 9.88481 14.0723V16.8901C9.88481 16.9835 9.92198 17.0731 9.98814 17.1392C10.0543 17.2052 10.144 17.2424 10.2376 17.2424H10.9432C11.0367 17.2424 11.1265 17.2052 11.1926 17.1392C11.2588 17.0731 11.296 16.9835 11.296 16.8901V14.0723C11.296 13.9789 11.2588 13.8893 11.1926 13.8232C11.1265 13.7572 11.0367 13.72 10.9432 13.72H10.2376Z" fill="#E0E0E0"/>
<path d="M17.12 11.9932V12.4496C17.12 12.8509 15.9734 13.1792 14.5619 13.1792C13.1505 13.1792 12.0039 12.8509 12.0039 12.4499V11.9932C12.0039 11.5917 13.1505 11.2637 14.5619 11.2637C15.9734 11.2637 17.12 11.5917 17.12 11.9932ZM17.12 13.0196V14.0461C17.12 14.4472 15.9734 14.7754 14.5619 14.7754C13.1505 14.7754 12.0039 14.4472 12.0039 14.0461V13.0196C12.5534 13.35 13.5593 13.5046 14.5619 13.5046C15.5646 13.5046 16.5707 13.3498 17.12 13.0196ZM17.12 14.6158V15.6424C17.12 16.0435 15.9734 16.3717 14.5619 16.3717C13.1505 16.3717 12.0039 16.0437 12.0039 15.6421V14.6158C12.5534 14.9463 13.5593 15.101 14.5619 15.101C15.5646 15.101 16.5707 14.946 17.12 14.6158Z" fill="#BDBDBD"/>
<path d="M14.5437 20.1889C14.2732 20.2859 13.9792 20.3399 13.6742 20.3399C13.3692 20.3399 13.0753 20.2859 12.8048 20.1889C12.79 20.1877 12.7974 20.1865 12.7949 20.1852C12.4247 20.0502 12.0951 19.8316 11.8283 19.5541C11.3873 19.0949 11.1162 18.4723 11.1162 17.7859C11.1162 16.3753 12.2612 15.2319 13.6742 15.2319C15.0873 15.2319 16.2323 16.3753 16.2323 17.7859C16.2323 18.4723 15.9506 19.0949 15.5202 19.5541C15.5079 19.5664 15.4956 19.5799 15.4833 19.5922C15.2201 19.8537 14.9004 20.06 14.5437 20.1889ZM13.427 16.5961V16.6808C13.3582 16.6956 13.2819 16.7164 13.2315 16.7435C13.0483 16.827 12.8884 16.9817 12.849 17.2064C12.8269 17.3316 12.8392 17.4532 12.8908 17.5625C12.9425 17.6705 13.0224 17.7466 13.1036 17.8019C13.2463 17.8989 13.4344 17.9554 13.5783 17.9984L13.6054 18.0057C13.7775 18.0585 13.8931 18.0966 13.9657 18.1494C13.9965 18.1715 14.0075 18.1887 14.0112 18.1997C14.0161 18.2096 14.0235 18.2317 14.0149 18.2808C14.0075 18.3238 13.9842 18.3606 13.9165 18.3888C13.8415 18.4208 13.7197 18.4367 13.5623 18.4122C13.4885 18.3999 13.3569 18.3557 13.2401 18.3164C13.2131 18.3066 13.186 18.298 13.1614 18.2894C13.0323 18.2464 12.8933 18.3164 12.8503 18.4453C12.8072 18.5742 12.8773 18.713 13.0064 18.7449C13.0212 18.7609 13.0397 18.767 13.0606 18.7744C13.1466 18.8075 13.3102 18.8591 13.427 18.8861V18.9647C13.427 19.101 13.5377 19.2115 13.6632 19.2115C13.8108 19.2115 13.9214 19.101 13.9214 18.9647V18.8972C13.9866 18.8849 14.0506 18.8554 14.1096 18.8407C14.3039 18.7584 14.4589 18.5988 14.4995 18.3655C14.5216 18.2378 14.5118 18.115 14.4626 18.0033C14.4146 17.8928 14.3371 17.8117 14.2547 17.7528C14.1059 17.6435 13.9067 17.5846 13.7579 17.5391L13.737 17.5367C13.5734 17.4839 13.4553 17.447 13.3803 17.3955C13.3483 17.3734 13.3385 17.3586 13.336 17.3525C13.3336 17.3476 13.3262 17.3328 13.3336 17.2911C13.3385 17.2665 13.3569 17.226 13.4344 17.1916C13.5033 17.156 13.6361 17.1364 13.7862 17.1487C13.8403 17.1683 14.0063 17.2002 14.0543 17.2125C14.1846 17.2481 14.3199 17.1695 14.3543 17.0382C14.39 16.908 14.3113 16.7729 14.1797 16.7386C14.1256 16.7238 14.0026 16.6993 13.9214 16.6845V16.6072C13.9214 16.4709 13.8108 16.3604 13.6742 16.3604C13.5377 16.3604 13.427 16.4709 13.427 16.6072V16.5961Z" fill="#9E9E9E"/>
<path d="M19.7603 10.4593C19.7603 5.09143 15.4085 0.739941 10.0403 0.739941C4.67211 0.739941 0.320313 5.09143 0.320313 10.4593C0.320313 13.0731 1.3522 15.446 3.03086 17.1927C1.95774 15.7057 1.32237 13.8607 1.32237 11.862C1.32237 6.93692 5.18067 2.94432 9.94011 2.94432C14.6996 2.94432 18.5578 6.93692 18.5578 11.862C18.5578 14.2107 17.6805 16.3473 16.2463 17.9399C18.3932 16.1571 19.7603 13.4678 19.7603 10.4593Z" fill="#BDBDBD"/>
</svg>
