<svg width="20" height="21" viewBox="0 0 20 21" fill="none" xmlns="http://www.w3.org/2000/svg">
<g clip-path="url(#clip0_2045_48763)">
<path d="M20 11.1226C20 5.59977 15.5228 1.12263 10 1.12263C4.47715 1.12263 -5.77846e-07 5.59978 -3.36434e-07 11.1226C-2.1888e-07 13.812 1.06161 16.2533 2.78863 18.0506C1.6846 16.5206 1.03093 14.6223 1.03093 12.5659C1.03093 7.49857 5.00036 3.39067 9.89691 3.39067C14.7935 3.39067 18.7629 7.49857 18.7629 12.5659C18.7629 14.9824 17.8602 17.1807 16.3848 18.8193C18.5935 16.985 20 14.2181 20 11.1226Z" fill="#BDBDBD"/>
<path d="M9.14183 19.8688C9.14183 19.8688 8.28906 19.8688 8.28906 18.9476C8.28906 18.0264 9.14183 15.2628 12.5529 15.2628C15.964 15.2628 16.8167 18.0264 16.8167 18.9476C16.8167 19.8688 15.964 19.8688 15.964 19.8688H9.14183ZM12.5529 14.3416C13.2314 14.3416 13.8821 14.0505 14.3619 13.5322C14.8417 13.0139 15.1112 12.311 15.1112 11.5781C15.1112 10.8451 14.8417 10.1422 14.3619 9.62389C13.8821 9.10562 13.2314 8.81445 12.5529 8.81445C11.8744 8.81445 11.2237 9.10562 10.7439 9.62389C10.2641 10.1422 9.99459 10.8451 9.99459 11.5781C9.99459 12.311 10.2641 13.0139 10.7439 13.5322C11.2237 14.0505 11.8744 14.3416 12.5529 14.3416Z" fill="#9E9E9E"/>
<path fill-rule="evenodd" clip-rule="evenodd" d="M7.62088 19.8688C7.49446 19.5813 7.43142 19.2659 7.43668 18.9476C7.43668 17.6994 8.01656 16.4143 9.08764 15.5208C8.55303 15.3428 7.99605 15.2558 7.43668 15.2628C4.02562 15.2628 3.17285 18.0264 3.17285 18.9476C3.17285 19.8688 4.02562 19.8688 4.02562 19.8688H7.62088Z" fill="#9E9E9E"/>
<path d="M7.01082 14.3416C7.57624 14.3416 8.1185 14.099 8.51832 13.6671C8.91813 13.2352 9.14274 12.6494 9.14274 12.0386C9.14274 11.4278 8.91813 10.842 8.51832 10.4101C8.1185 9.97823 7.57624 9.7356 7.01082 9.7356C6.4454 9.7356 5.90314 9.97823 5.50333 10.4101C5.10352 10.842 4.87891 11.4278 4.87891 12.0386C4.87891 12.6494 5.10352 13.2352 5.50333 13.6671C5.90314 14.099 6.4454 14.3416 7.01082 14.3416Z" fill="#9E9E9E"/>
</g>
<defs>
<clipPath id="clip0_2045_48763">
<rect width="20" height="20" fill="white" transform="translate(0 0.5)"/>
</clipPath>
</defs>
</svg>
