<svg width="21" height="21" viewBox="0 0 21 21" fill="none" xmlns="http://www.w3.org/2000/svg">
<path opacity="0.3" d="M3.19922 17.2035L3.29242 16.7025L3.72733 16.5431L3.96033 15.9511L4.44184 15.7006H4.59717L4.67483 15.3818L5.07869 15.1313L5.32721 15.3818L5.45147 15.2679L5.94852 15.3818L6.43004 14.9719L7.37754 15.4729L7.53287 15.8372L7.93672 16.0649L8.01438 16.6342L8.21631 16.7025L8.32504 17.2035H3.19922Z" fill="#9E9E9E"/>
<path opacity="0.3" d="M13.9859 8.54283L14.5729 8.30713V9.87859L14.0581 10.0856C13.9943 10.1112 13.9248 10.064 13.9248 9.99489V8.63339C13.9248 8.59354 13.949 8.55767 13.9859 8.54283Z" fill="#9E9E9E"/>
<path opacity="0.3" d="M15.8654 8.31419L15.3506 8.52094V10.0924L15.9376 9.85694C15.9744 9.8419 15.9987 9.80611 15.9987 9.76626V8.40484C15.9987 8.33579 15.9295 8.28857 15.8654 8.31419Z" fill="#9E9E9E"/>
<path d="M14.5732 9.87859L15.351 10.0924V8.52094L14.5732 8.30713V9.87859Z" fill="#9E9E9E"/>
<path d="M15.4586 10.1743C15.4586 10.1638 15.4643 10.1536 15.4738 10.1481L15.5601 10.0981C15.5562 10.0768 15.5539 10.0536 15.5539 10.0329C15.5539 10.0123 15.5562 9.98897 15.5601 9.96782L15.4738 9.91778C15.4644 9.91231 15.4586 9.90214 15.4586 9.89162C15.4586 9.8654 15.5364 9.70744 15.5769 9.70744C15.5821 9.70744 15.5874 9.70879 15.5921 9.71154L15.6787 9.76171C15.7115 9.73351 15.7495 9.71142 15.791 9.69665V9.59646C15.791 9.58247 15.8005 9.5699 15.8142 9.56704C15.845 9.56056 15.8767 9.55688 15.9095 9.55688C15.9423 9.55688 15.974 9.56056 16.0048 9.56704C16.0184 9.56991 16.028 9.58247 16.028 9.59646V9.69665C16.0695 9.71142 16.1074 9.73351 16.1402 9.76163L16.2268 9.71153C16.2316 9.70878 16.2368 9.70742 16.2421 9.70742C16.2786 9.70742 16.3603 9.85982 16.3603 9.8916C16.3603 9.90212 16.3546 9.9123 16.3452 9.91776L16.2588 9.96781C16.2627 9.98906 16.265 10.0106 16.265 10.0329C16.265 10.0553 16.2627 10.0769 16.2588 10.0981L16.3452 10.1481C16.3546 10.1536 16.3604 10.1638 16.3604 10.1743C16.3604 10.2005 16.2826 10.3585 16.2421 10.3585C16.2369 10.3585 16.2316 10.3571 16.2268 10.3544L16.1403 10.3042C16.1074 10.3323 16.0695 10.3545 16.028 10.3692V10.4694C16.028 10.4834 16.0184 10.4959 16.0048 10.4988C15.9739 10.5053 15.9423 10.509 15.9112 10.509C15.88 10.509 15.8466 10.5053 15.8158 10.4989C15.8006 10.4943 15.791 10.4834 15.791 10.4694V10.3692C15.7495 10.3544 15.7115 10.3323 15.6787 10.3042L15.5921 10.3543C15.5874 10.3571 15.5821 10.3584 15.5769 10.3584C15.5404 10.3584 15.4586 10.2061 15.4586 10.1743ZM15.9095 10.1817C15.9912 10.1817 16.0576 10.115 16.0576 10.0329C16.0576 9.95092 15.9912 9.88418 15.9095 9.88418C15.8278 9.88418 15.7613 9.95092 15.7613 10.0329C15.7613 10.115 15.8278 10.1817 15.9095 10.1817Z" fill="#9E9E9E"/>
<path d="M4.55077 12.9871C4.55077 12.8996 4.48009 12.8286 4.39291 12.8286H4.21668C4.16844 12.8286 4.12285 12.8508 4.0929 12.8887L3.76894 13.2997L3.2966 13.9448C3.28581 13.9595 3.27759 13.976 3.27256 13.9936C3.20223 14.2398 3.19392 14.3934 3.20151 14.6539C3.20189 14.667 3.20398 14.6804 3.20771 14.6929C3.34488 15.1556 3.53862 15.192 3.90559 15.1845C3.91859 15.1842 3.93164 15.1823 3.94418 15.1788L5.74641 14.676C5.85461 14.6458 5.8352 14.4697 5.72353 14.4578L5.70873 14.4507C5.41124 14.3089 5.23993 14.2272 4.96124 13.9671C4.72284 13.7312 4.65012 13.5829 4.55958 13.325C4.55372 13.3082 4.55077 13.2906 4.55077 13.2729L4.55077 12.9871Z" fill="#9E9E9E"/>
<g opacity="0.3">
<path fill-rule="evenodd" clip-rule="evenodd" d="M10.4591 10.7873C10.3322 10.7871 10.2319 10.784 10.1486 10.7815C10.0166 10.7776 9.9277 10.7749 9.84499 10.7868L10.4591 10.7873Z" fill="#9E9E9E"/>
<path d="M10.4733 10.7873V10.0414C10.4733 9.82549 10.2388 9.39367 10.0238 9.29553C9.80878 9.19739 5.78232 7.01864 5.62595 7.0579C5.46958 7.09715 5.17639 7.60749 5.07866 7.84303C4.98745 8.06286 4.24931 12.2148 4.15121 12.7679C4.14547 12.8003 4.17051 12.8286 4.20325 12.8286H4.51456C4.53645 12.8286 4.55604 12.815 4.56378 12.7945L6.2864 8.2199C6.29845 8.1879 6.33715 8.17566 6.36529 8.19494L8.77284 9.84512C9.18206 10.0917 9.33085 10.2646 9.41786 10.6499L9.4836 11.321C9.48908 11.377 9.56369 11.3858 9.58079 11.3322C9.67929 11.0236 9.73332 10.8028 9.84499 10.7868C9.9277 10.7749 10.0166 10.7776 10.1486 10.7815C10.2319 10.784 10.3322 10.7871 10.4591 10.7873L10.4733 10.7873Z" fill="#9E9E9E"/>
</g>
<path fill-rule="evenodd" clip-rule="evenodd" d="M12.6229 14.5953C12.71 14.5953 12.7792 14.5255 12.7792 14.438C12.7792 13.7824 12.7792 11.294 12.7792 11.1407C12.7792 10.964 12.6619 10.7874 12.5642 10.7874C12.4959 10.7874 11.255 10.7874 10.4727 10.7874C10.1349 10.7874 9.84728 10.7874 9.84728 10.7874C9.70758 10.7868 9.65728 11.1336 9.50571 11.5529C9.28572 12.1614 9.0459 12.924 9.0459 13.0054C9.0459 13.1428 9.0459 13.8886 9.0459 14.1242C9.0459 14.3597 9.29999 14.5953 9.53455 14.5953C9.73678 14.5953 12.0024 14.5953 12.6229 14.5953ZM11.0677 13.0294C11.1424 13.0154 11.1959 12.95 11.1959 12.8737V11.2207C11.1959 11.1331 11.1256 11.0622 11.0385 11.0622C10.7969 11.0622 10.3408 11.0622 10.1292 11.0622C10.065 11.0622 10.0077 11.1004 9.98365 11.1602C9.83761 11.5232 9.33623 12.7788 9.31954 12.9465C9.29999 13.1428 9.22181 13.3783 9.31954 13.3587C9.40124 13.3423 10.6578 13.1063 11.0677 13.0294ZM11.5688 12.2399C11.4816 12.2399 11.4109 12.1689 11.4109 12.0813V11.3973C11.4109 11.3098 11.4816 11.2388 11.5688 11.2388H12.0349C12.1221 11.2388 12.1928 11.3098 12.1928 11.3973V12.0813C12.1928 12.1689 12.1221 12.2399 12.0349 12.2399H11.5688Z" fill="#9E9E9E"/>
<path opacity="0.3" d="M8.24512 16.3617C8.24512 15.798 8.70017 15.3411 9.2615 15.3411H14.9689C15.5302 15.3411 15.9853 15.798 15.9853 16.3617C15.9853 16.9254 15.5302 17.3824 14.9689 17.3824H9.2615C8.70017 17.3824 8.24512 16.9254 8.24512 16.3617Z" fill="#9E9E9E"/>
<path d="M8.71094 16.3613C8.71094 16.0144 8.99097 15.7332 9.33641 15.7332H14.8874C15.2329 15.7332 15.5129 16.0144 15.5129 16.3613C15.5129 16.7082 15.2329 16.9894 14.8874 16.9894H9.33641C8.99097 16.9894 8.71094 16.7082 8.71094 16.3613Z" fill="#9E9E9E"/>
<rect opacity="0.3" x="10.8252" y="15.1055" width="2.54097" height="0.235525" fill="#9E9E9E"/>
<rect x="9.18359" y="14.5952" width="5.43376" height="0.510341" rx="0.25517" fill="#9E9E9E"/>
<path opacity="0.3" d="M12.7793 12.7411C12.7793 12.5076 12.9678 12.3184 13.2003 12.3184H14.1956C14.4281 12.3184 14.6166 12.5076 14.6166 12.7411V14.1725C14.6166 14.406 14.4281 14.5952 14.1956 14.5952H13.2003C12.9678 14.5952 12.7793 14.406 12.7793 14.1725V12.7411Z" fill="#9E9E9E"/>
<path d="M12.9736 13.0053C12.9736 12.821 13.1224 12.6716 13.3059 12.6716C13.4894 12.6716 13.6382 12.821 13.6382 13.0053V13.869C13.6382 14.0532 13.4894 14.2026 13.3059 14.2026C13.1224 14.2026 12.9736 14.0532 12.9736 13.869V13.0053Z" fill="#9E9E9E"/>
<path d="M13.7946 13.0053C13.7946 12.821 13.9433 12.6716 14.1268 12.6716C14.3104 12.6716 14.4591 12.821 14.4591 13.0053V13.869C14.4591 14.0532 14.3104 14.2026 14.1268 14.2026C13.9433 14.2026 13.7946 14.0532 13.7946 13.869V13.0053Z" fill="#9E9E9E"/>
<path d="M10.2751 4.83228C9.99047 4.83228 9.81512 5.05037 9.81512 5.3109V8.82954C9.85489 8.85054 9.89188 8.87004 9.92585 8.88791C9.99111 8.92223 10.0446 8.95021 10.0849 8.97099C10.105 8.98139 10.1213 8.98972 10.1338 8.996C10.1401 8.99914 10.145 9.00158 10.1488 9.00342C10.1499 9.00399 10.1509 9.00445 10.1517 9.00483C10.1533 9.00558 10.1541 9.00596 10.1542 9.00604C10.2624 9.05543 10.3512 9.13499 10.4184 9.20912C10.4883 9.2863 10.5504 9.37511 10.6021 9.46403C10.6973 9.62791 10.7894 9.849 10.7894 10.0413V10.5537H12.7685C12.8787 10.5537 13.011 10.7527 13.011 10.9518V11.7605H16.2371C16.4958 11.7605 16.7143 11.5584 16.7143 11.2986C16.7143 10.9901 16.6927 10.6866 16.6511 10.3895C16.6435 10.4045 16.6354 10.4197 16.627 10.4344C16.6099 10.4642 16.5852 10.5036 16.5542 10.5399C16.5391 10.5576 16.5145 10.5842 16.4808 10.6087C16.4561 10.6267 16.3977 10.665 16.3143 10.6741C16.2666 10.7403 16.1952 10.7908 16.106 10.8096C16.0567 10.82 16.0031 10.8266 15.9474 10.8266C15.893 10.8266 15.8379 10.8203 15.7871 10.8097L15.7744 10.807L15.762 10.8033C15.6983 10.7843 15.6275 10.7412 15.5773 10.6741C15.4904 10.6646 15.431 10.6231 15.4099 10.6075C15.3782 10.5841 15.3548 10.559 15.3403 10.5424C15.3106 10.508 15.2861 10.4705 15.2685 10.441C15.2548 10.4179 15.2415 10.3933 15.2299 10.369L14.6087 10.204L14.2113 10.3805C13.9397 10.4895 13.644 10.2888 13.644 9.99469V8.63319C13.644 8.46307 13.7473 8.31055 13.904 8.24754L14.6087 7.97904L15.3864 8.18564L15.7841 8.01873C15.7955 8.01417 15.8069 8.01015 15.8184 8.00667C14.6968 6.10642 12.6339 4.83228 10.2751 4.83228Z" fill="#EEEEEE"/>
<path d="M8.80127 14.3139V13.5137L8.43529 13.1462V9.99882L6.46335 8.64722L4.85997 12.9052C4.86456 12.9318 4.86695 12.9591 4.86695 12.9871L4.86695 13.2452C4.90568 13.3534 4.93636 13.4246 4.97571 13.4902C5.01696 13.5589 5.07509 13.6334 5.17977 13.7373C5.41484 13.9561 5.55028 14.0233 5.82451 14.1541C6.02302 14.2073 6.11703 14.3884 6.13178 14.5259C6.14825 14.6795 6.07804 14.9132 5.83078 14.9822L5.73903 15.0078L5.86425 15.0365L6.38805 14.5906L7.62399 15.2441L7.7812 15.6128L8.06392 15.7722C8.23078 15.4311 8.53795 15.1717 8.90984 15.07C8.88177 15.0022 8.86629 14.9279 8.86629 14.8502C8.86629 14.7659 8.88452 14.6856 8.91731 14.6132C8.84637 14.5245 8.80127 14.4192 8.80127 14.3139Z" fill="#EEEEEE"/>
<path d="M4.32877 15.4012L4.02855 15.4849C3.99082 15.4954 3.95151 15.5013 3.91175 15.5022C3.73576 15.5058 3.50799 15.5064 3.30936 15.3887C3.09552 15.2621 2.98111 15.0436 2.90401 14.7835C2.89224 14.7438 2.88594 14.703 2.88478 14.6631C2.87661 14.3826 2.8857 14.1939 2.96798 13.9059C2.98375 13.8507 3.00911 13.8003 3.04126 13.7564L3.51693 13.1067L3.84232 12.694C3.89674 12.3873 4.10164 11.2351 4.30575 10.1228C4.40991 9.55516 4.51405 8.9969 4.59795 8.56635C4.63986 8.35128 4.677 8.1666 4.70674 8.02802C4.72156 7.95892 4.73495 7.89938 4.74645 7.85245C4.75571 7.81461 4.76927 7.76098 4.786 7.72067C4.8434 7.58232 4.95076 7.37874 5.06462 7.20324C5.12172 7.11523 5.18608 7.0255 5.2522 6.95155C5.28523 6.9146 5.32359 6.87606 5.36625 6.84261C5.40553 6.8118 5.46792 6.7697 5.54869 6.74942C5.60419 6.73549 5.6507 6.73955 5.6686 6.74143C5.69179 6.74387 5.7118 6.74816 5.72582 6.75157C5.75404 6.75845 5.78196 6.76778 5.80573 6.7764C5.85452 6.79409 5.91398 6.81913 5.97906 6.84818C6.11065 6.90692 6.28629 6.99153 6.48878 7.0922C6.8948 7.29405 7.42198 7.56709 7.94886 7.84331C8.11203 7.92885 8.27537 8.0148 8.43529 8.09915V6.2644C8.43529 5.99738 8.21107 5.78462 7.92073 5.82099C4.58615 6.28547 1.99609 9.18264 1.99609 12.6843C1.99609 14.0673 2.39949 15.3553 3.09442 16.4365L3.48489 16.2934L3.70917 15.7235L4.32877 15.4012Z" fill="#EEEEEE"/>
<path d="M4.77198 14.9476L3.94384 15.1787C3.9313 15.1822 3.91825 15.1841 3.90525 15.1844C3.53828 15.1919 3.34454 15.1555 3.20737 14.6928C3.20364 14.6803 3.20155 14.6669 3.20117 14.6538C3.19358 14.3933 3.20189 14.2397 3.27222 13.9935C3.27725 13.9759 3.28547 13.9594 3.29626 13.9447L3.7686 13.2996L3.96077 13.0558C4.0267 13.1126 4.11222 13.1464 4.20276 13.1464H4.51407C4.52631 13.1464 4.53844 13.1458 4.55043 13.1446L4.55043 13.2728C4.55043 13.2905 4.55338 13.3082 4.55924 13.3249C4.64978 13.5828 4.7225 13.7311 4.9609 13.967C5.19856 14.1888 5.35813 14.2809 5.58445 14.3911C5.58934 14.3935 5.59425 14.3959 5.5992 14.3983C5.62517 14.4109 5.65203 14.4237 5.68 14.4371L5.72319 14.4577C5.83486 14.4696 5.85427 14.6457 5.74607 14.6759L5.21923 14.8229L5.12548 14.7284L4.77198 14.9476Z" fill="#9E9E9E"/>
<path d="M3.95573 17.5212C5.20897 18.8116 6.95927 19.6125 8.89523 19.6125C10.3843 19.6125 11.7641 19.1391 12.891 18.3337C13.099 18.1845 13.1242 17.895 12.9666 17.7001H9.26098C9.01831 17.7001 8.79079 17.635 8.5948 17.5212H3.95573Z" fill="#EEEEEE"/>
<path d="M14.9684 17.7001H14.8099L14.8371 17.7275C15.0038 17.8949 15.2741 17.8834 15.4465 17.7448C15.546 17.6513 15.6428 17.5548 15.7366 17.4556C15.5195 17.6096 15.2545 17.7001 14.9684 17.7001Z" fill="#EEEEEE"/>
<path d="M16.1569 16.9681C16.2492 16.786 16.3013 16.5799 16.3013 16.3616C16.3013 15.6224 15.7045 15.0231 14.9684 15.0231H14.9066C14.9238 14.9685 14.9331 14.9104 14.9331 14.8502C14.9331 14.734 14.8985 14.6255 14.8389 14.5348C14.8989 14.4276 14.9331 14.304 14.9331 14.1723V13.1462H17.1282C17.3927 13.1462 17.6054 13.3713 17.5709 13.6369C17.3998 14.8845 16.897 16.0252 16.1569 16.9681Z" fill="#EEEEEE"/>
<path d="M20.0329 11.4927C20.0329 5.94931 15.5484 1.45552 10.0164 1.45552C4.48451 1.45552 0 5.94931 0 11.4927C0 14.192 1.06336 16.6425 2.79322 18.4464C1.68737 16.9107 1.03262 15.0053 1.03262 12.9414C1.03262 7.85516 5.00858 3.73199 9.91318 3.73199C14.8178 3.73199 18.7937 7.85516 18.7937 12.9414C18.7937 15.3668 17.8896 17.5733 16.4117 19.218C18.6241 17.3769 20.0329 14.5997 20.0329 11.4927Z" fill="#BDBDBD"/>
</svg>
