<svg width="20" height="21" viewBox="0 0 20 21" fill="none" xmlns="http://www.w3.org/2000/svg">
<path d="M19.8164 10.5561C19.8164 5.12491 15.4136 0.722089 9.98241 0.722089C4.55126 0.72209 0.148437 5.12491 0.148437 10.5561C0.148437 13.2008 1.19243 15.6016 2.89077 17.369C1.80507 15.8644 1.16225 13.9976 1.16225 11.9754C1.16225 6.99218 5.06578 2.95248 9.88103 2.95248C14.6963 2.95247 18.5998 6.99218 18.5998 11.9754C18.5998 14.3517 17.7121 16.5135 16.2612 18.125C18.4333 16.3212 19.8164 13.6001 19.8164 10.5561Z" fill="#BDBDBD"/>
<ellipse rx="1.23316" ry="1.23316" transform="matrix(-1 0 0 1 14.0403 19.1187)" fill="#E0E0E0"/>
<ellipse rx="1.23316" ry="1.23316" transform="matrix(-1 0 0 1 11.008 19.1187)" fill="#E0E0E0"/>
<ellipse rx="1.23316" ry="1.23316" transform="matrix(-1 0 0 1 5.50903 19.1187)" fill="#E0E0E0"/>
<path fill-rule="evenodd" clip-rule="evenodd" d="M15.6778 18.3102C15.6778 18.3102 15.8193 18.1686 15.8193 18.0878V17.4813C15.8193 17.2387 15.6778 17.0366 15.415 17.0366H7.63198V14.3074C7.63198 14.1457 7.51068 14.0244 7.32874 14.0244C7.1468 14.0244 5.77213 14.0244 5.56998 14.0244C5.36782 14.0244 5.10502 14.3074 5.10502 14.3074C5.10502 14.3074 3.85164 15.763 3.791 15.8641C3.73035 15.9651 3.73035 15.9651 3.73035 16.046C3.73035 16.1269 3.71013 17.9059 3.71013 18.0474C3.71013 18.1889 3.87186 18.3304 3.87186 18.3304C3.87186 18.3304 4.33682 17.2994 5.50933 17.2994C6.68184 17.2994 7.22766 18.5123 7.22766 18.5123H9.22902C9.22902 18.5123 9.67376 17.2994 10.8867 17.2994C12.0996 17.2994 12.504 18.108 12.504 18.108C12.504 18.108 12.9285 17.2994 14.0404 17.2994C15.1522 17.2994 15.6778 18.3102 15.6778 18.3102ZM6.72227 16.1066V14.9139H5.75192L4.76135 16.1066H6.72227Z" fill="#9E9E9E"/>
<path fill-rule="evenodd" clip-rule="evenodd" d="M15.7984 12.8558C15.7984 12.2842 15.335 11.8208 14.7633 11.8208H9.23231C8.66067 11.8208 8.19727 12.2842 8.19727 12.8558V15.3545C8.19727 15.9262 8.66067 16.3896 9.23231 16.3896H14.7633C15.335 16.3896 15.7984 15.9262 15.7984 15.3545V12.8558ZM14.6259 12.8922C14.6259 12.7248 14.4901 12.589 14.3226 12.589C14.1552 12.589 14.0194 12.7248 14.0194 12.8922V15.3586C14.0194 15.526 14.1552 15.6618 14.3226 15.6618C14.4901 15.6618 14.6259 15.526 14.6259 15.3586V12.8922ZM12.7862 12.589C12.9537 12.589 13.0895 12.7248 13.0895 12.8922V15.3586C13.0895 15.526 12.9537 15.6618 12.7862 15.6618C12.6188 15.6618 12.483 15.526 12.483 15.3586V12.8922C12.483 12.7248 12.6188 12.589 12.7862 12.589ZM11.5531 12.8922C11.5531 12.7248 11.4173 12.589 11.2498 12.589C11.0824 12.589 10.9466 12.7248 10.9466 12.8922V15.3586C10.9466 15.526 11.0824 15.6618 11.2498 15.6618C11.4173 15.6618 11.5531 15.526 11.5531 15.3586V12.8922ZM9.71345 12.589C9.88092 12.589 10.0167 12.7248 10.0167 12.8922V15.3586C10.0167 15.526 9.88092 15.6618 9.71345 15.6618C9.54597 15.6618 9.41021 15.526 9.41021 15.3586V12.8922C9.41021 12.7248 9.54597 12.589 9.71345 12.589Z" fill="#E0E0E0"/>
<path fill-rule="evenodd" clip-rule="evenodd" d="M3.29613 15.2917V9.97758C3.29613 9.43028 3.6301 8.93541 4.13956 8.73201L9.75551 6.48524C9.91485 6.42126 10.0951 6.42126 10.2545 6.48524L15.8711 8.73201C16.3805 8.93541 16.7139 9.43028 16.7139 9.97758V16.6185C16.7139 16.8974 16.4895 17.1217 16.2107 17.1217H15.7159C15.6437 17.0173 15.5276 16.9501 15.3714 16.9501H14.8252C14.7479 16.8617 14.7012 16.7458 14.7012 16.6185V16.542H15.0665C15.7019 16.542 16.2169 16.0295 16.2169 15.3974V12.6342C16.2169 12.0021 15.7019 11.4896 15.0665 11.4896H14.7012V11.0638C14.7012 10.7115 14.4014 10.3928 14.0303 10.3928H5.97968C5.60859 10.3928 5.30879 10.7115 5.30879 11.0638V13.7259L4.86649 13.7259C4.65079 13.7259 4.37037 14.0288 4.37037 14.0288C4.37037 14.0288 3.71132 14.7966 3.29613 15.2917ZM7.76871 12.7602V12.6342C7.76871 12.0021 8.28376 11.4896 8.9191 11.4896H14.0303V11.0826H5.97968V12.7602H7.76871ZM7.76871 13.7259V13.4312H5.97968V13.7259H6.74318H7.76871Z" fill="#E0E0E0"/>
</svg>
