<svg width="20" height="19" viewBox="0 0 20 19" fill="none" xmlns="http://www.w3.org/2000/svg">
<path d="M20 10.6431C20 5.11123 15.5229 0.626798 10 0.626798C4.47715 0.626798 -5.78785e-07 5.11123 -3.36981e-07 10.6431C-2.19236e-07 13.3368 1.06161 15.7821 2.78863 17.5823C1.6846 16.0498 1.03093 14.1484 1.03093 12.0887C1.03093 7.01311 5.00036 2.89853 9.89691 2.89853C14.7935 2.89853 18.7629 7.01311 18.7629 12.0887C18.7629 14.5091 17.8602 16.711 16.3848 18.3523C18.5935 16.515 20 13.7436 20 10.6431Z" fill="#BDBDBD"/>
<ellipse cx="10.0466" cy="11.0945" rx="4.08666" ry="4.08666" fill="#C4C4C4"/>
<path opacity="0.6" d="M17.2656 10.7184V11.5066C17.2656 11.9365 16.979 12.2232 16.6207 12.2948L15.6892 12.4381C15.5459 13.0113 15.331 13.5846 14.9727 14.0861L15.5459 14.8743C15.7609 15.1609 15.7609 15.6624 15.4743 15.9491L14.901 16.5224C14.6144 16.809 14.1845 16.809 13.8262 16.594L13.038 16.0208C12.5365 16.3074 11.9632 16.594 11.39 16.7373L11.2467 17.6688C11.1751 18.0271 10.8168 18.3137 10.4585 18.3137H9.67034C9.24042 18.3137 8.95381 18.0271 8.88216 17.6688L8.73885 16.7373C8.16563 16.594 7.5924 16.379 7.09083 16.0208L6.30264 16.594C6.01603 16.809 5.51445 16.809 5.22784 16.5224L4.65461 15.9491C4.368 15.6624 4.368 15.2325 4.58296 14.8743L5.15619 14.0861C4.86957 13.5846 4.58296 13.0113 4.43965 12.4381L3.50816 12.2948C3.14989 12.2232 2.86328 11.8649 2.86328 11.5066V10.7184C2.86328 10.2885 3.14989 10.0019 3.50816 9.93025L4.43965 9.78695C4.58296 9.21368 4.79792 8.64051 5.15619 8.13894L4.58296 7.35068C4.368 7.06407 4.368 6.5625 4.65461 6.27589L5.22784 5.70271C5.51445 5.4161 5.94437 5.41611 6.30264 5.63107L7.09083 6.20425C7.5924 5.91763 8.16563 5.63102 8.73885 5.48771L8.88216 4.55627C8.95381 4.198 9.31208 3.91138 9.67034 3.91138H10.4585C10.8885 3.91138 11.1751 4.198 11.2467 4.55627L11.39 5.48771C11.9632 5.63102 12.5365 5.84598 13.038 6.20425L13.8262 5.63107C14.1128 5.41611 14.6144 5.4161 14.901 5.70271L15.4743 6.27589C15.7609 6.5625 15.7609 6.99242 15.5459 7.35068L14.9727 8.13894C15.2593 8.64051 15.5459 9.21368 15.6892 9.78695L16.6207 9.93025C16.979 10.0019 17.2656 10.3602 17.2656 10.7184ZM10.1003 6.20425C8.73885 6.20425 5.22784 6.85231 5.22784 11.1484C5.22784 12.5098 5.98974 15.9491 10.1003 16.0208C11.4617 16.0208 15.3387 14.5894 14.901 10.9682C14.901 9.60682 14.1666 6.27589 10.1003 6.20425Z" fill="#616161"/>
<path d="M16.3383 16.7225C16.3383 15.3735 15.8891 14.0722 15.0771 13.0689C14.2651 12.0656 13.1477 11.4312 11.9399 11.2878L11.4168 16.7225H16.3383Z" fill="#F5F5F5"/>
<path d="M3.94629 16.7225C3.94629 15.3765 4.39709 14.0778 5.21231 13.0753C6.02754 12.0728 7.14984 11.437 8.36418 11.2897L8.907 16.7225H3.94629Z" fill="#F5F5F5"/>
<rect x="8.69043" y="9.80713" width="2.98034" height="7.5226" rx="1.49017" fill="#F5F5F5"/>
<rect x="3.2002" y="17.3689" width="13.9998" height="0.940315" rx="0.470158" fill="#9E9E9E"/>
<ellipse cx="10.2003" cy="14.5088" rx="2.29409" ry="2.42916" fill="#9E9E9E"/>
<path fill-rule="evenodd" clip-rule="evenodd" d="M8.30927 16.311H3.94478C3.68511 16.311 3.47461 16.5215 3.47461 16.7812C3.47461 17.0409 3.68511 17.2514 3.94478 17.2514H10.1907C9.43338 17.2484 8.75699 16.883 8.30927 16.311ZM10.2093 17.2514H16.4552C16.7149 17.2514 16.9254 17.0409 16.9254 16.7812C16.9254 16.5215 16.7149 16.311 16.4552 16.311H12.0908C11.643 16.883 10.9667 17.2484 10.2093 17.2514Z" fill="#9E9E9E"/>
<ellipse cx="10.22" cy="14.548" rx="1.5686" ry="1.68475" fill="#FAFAFA"/>
</svg>
