<?xml version="1.0" encoding="UTF-8"?><svg id="Layer_2" xmlns="http://www.w3.org/2000/svg" xmlns:xlink="http://www.w3.org/1999/xlink" viewBox="0 0 253.9 101.67"><defs><style>.cls-1{fill:url(#linear-gradient);}.cls-2{fill:#00ad3d;}.cls-3{fill:#fff;}.cls-4{fill:#ff9e1b;}.cls-5{fill:#ff931e;}.cls-6{fill:#309b42;}.cls-7{fill:#40b6e6;}.cls-8{fill:url(#linear-gradient-2);}.cls-9{fill:none;stroke:#ff931e;stroke-miterlimit:10;}</style><linearGradient id="linear-gradient" x1="51.06" y1="-12.16" x2="51.06" y2="104.95" gradientTransform="matrix(1, 0, 0, 1, 0, 0)" gradientUnits="userSpaceOnUse"><stop offset="0" stop-color="#23c836"/><stop offset="1" stop-color="#008143"/></linearGradient><linearGradient id="linear-gradient-2" x1="51.06" y1="116.41" x2="51.06" y2="28.16" gradientTransform="matrix(1, 0, 0, 1, 0, 0)" gradientUnits="userSpaceOnUse"><stop offset="0" stop-color="#006da5"/><stop offset="1" stop-color="#26b3e8"/></linearGradient></defs><g id="Layer_1-2"><g><g><path class="cls-4" d="M248.99,32.97c-.32,0-.65,0-.96,0-3.17,.07-5.14,2.33-6.62,4.89l-9.66,15.86,4.58,7.46,8.3-13.33v20.74h9.28v-30.7c0-2.71-2.2-4.92-4.92-4.92Z"/><path class="cls-7" d="M215.4,32.97c-.32,0-.65,0-.96,0-2.71,0-4.92,2.2-4.92,4.92v30.7h9.28v-20.74l12.91,20.74-2.37-3.81-2.24-3.6h0l.91-1.47,3.73-5.99h0l-9.74-15.89c-1.48-2.55-3.45-4.79-6.61-4.86Z"/><polygon class="cls-2" points="227.1 61.18 229.34 64.78 231.71 68.59 236.32 61.18 231.74 53.73 228.01 59.71 227.1 61.18"/><polygon class="cls-6" points="227.1 61.18 229.34 64.78 227.1 61.18 227.1 61.18"/><polygon class="cls-6" points="228.01 59.71 231.74 53.73 231.74 53.72 228.01 59.71"/><path class="cls-2" d="M154.08,62.08h-26.53v-8.18h17.68c1.72,0,3.12-1.4,3.12-3.12s-1.4-3.12-3.12-3.12h-17.68v-8.54h26.62c1.72,0,3.12-1.4,3.12-3.12s-1.4-3.12-3.12-3.12h-30.96c-2.71,0-4.91,2.2-4.92,4.92h0v25.79h0c0,2.71,2.2,4.92,4.92,4.92h30.86c1.77,0,3.21-1.43,3.21-3.21s-1.44-3.21-3.21-3.21Z"/><path class="cls-2" d="M194.59,32.88v2.4h0v12.47h-22.37v-14.87h-9.25v25.2h0v10.51h9.25v-4.62s.01-.07,.01-.1c0-4.26,0-9.91,0-9.91h22.37v12.14h0v2.49h9.25V32.88h-9.25Z"/></g><g><g><path class="cls-5" d="M74.54,47.05h-10.45c-.58,0-1.1,.35-1.32,.89l-2.5,6.22-2.47-10.83c-.15-.63-.7-1.09-1.35-1.11-.64,.03-1.23,.41-1.41,1.04l-3.89,13.84-1.56,6.88c.22,.47,.67,.8,1.21,.82,.02,0,.04,0,.07,0,.63,0,1.2-.42,1.37-1.04l4.04-14.35,2.24,9.82c.14,.61,.66,1.05,1.28,1.1,.61,.04,1.2-.31,1.43-.89l3.84-9.55h9.48c.79,0,1.42-.64,1.42-1.42s-.64-1.42-1.42-1.42Z"/><path class="cls-7" d="M47.64,38.03c-.12-.66-.69-1.15-1.36-1.16-.68-.04-1.26,.43-1.42,1.08l-3.61,14.8-1.67-2.06c-.27-.33-.68-.52-1.1-.52h-10.88c-.79,0-1.42,.64-1.42,1.42s.64,1.42,1.42,1.42h10.2l3.05,3.76c.34,.42,.89,.61,1.42,.49,.53-.12,.94-.53,1.07-1.05l2.71-11.12,3.42,18.54c.02,.12,.07,.23,.13,.34l1.56-6.88-3.52-19.07Z"/></g><circle class="cls-9" cx="51.06" cy="50.82" r="22.12"/><rect class="cls-3" x="47.66" y="72.01" width="6.81" height="19.24"/><path class="cls-1" d="M101.22,62.49c-10.09-5.66-10.42-19.87-.63-26.03,.32-.2,.64-.42,1.26-.83-1.64-3.58-3.25-7.14-4.94-10.67-.15-.31-.93-.56-1.34-.47-2.26,.48-4.5,.5-6.75-.02-8.18-1.9-13.16-9.8-11.43-18.03,.09-.44-.05-1.23-.35-1.4-3.78-2.2-7.78-3.88-12.03-4.99-.29,.42-.54,.78-.78,1.14-5.76,8.38-18.22,8.68-24.4,.59q-1.58-2.07-4.11-1.31c-3.8,1.16-7.43,2.7-10.83,4.73,3.22,12.72-7.99,22.38-19.18,19.03-2.32,3.89-4.06,8.04-5.26,12.41,11.68,5.98,11.38,22.05-.45,27.76,1.35,3.31,2.73,6.63,4.05,9.98,.47,1.19,1.01,1.46,2.33,1.09,9.15-2.63,18.5,3.95,18.99,13.43,.12,2.38-.44,4.79-.7,7.38,3.6,2.11,7.67,3.91,12.05,5.1,.18-.36,.31-.63,.45-.9,1.02-2.02,2.4-3.67,3.99-4.98v-14.69c-12.58-4.18-21.66-16.04-21.66-30.02,0-17.47,14.16-31.64,31.64-31.64s31.64,14.16,31.64,31.64c0,14.03-9.14,25.92-21.78,30.06v15.32c.21,.2,.43,.38,.64,.59,1.3,1.37,2.05,3.26,3.05,4.91h.52c.43-.18,.86-.35,1.28-.54,3.52-1.51,7.04-3.01,10.55-4.54,.42-.18,.78-.5,1.13-.74-2.15-6.12-1.32-11.64,3.1-16.28,4.46-4.68,10-5.68,16.2-3.82,.51-1.01,1.08-1.95,1.46-2.95,1.06-2.81,2.02-5.66,3.06-8.48,.34-.91,.11-1.34-.76-1.83Z"/><path class="cls-8" d="M68.89,68.54c9.82-9.82,9.82-25.81,0-35.63-9.82-9.82-25.81-9.82-35.63,0-4.76,4.76-7.38,11.09-7.38,17.82s2.62,13.06,7.38,17.82c4.03,4.03,9.18,6.52,14.75,7.19v5.9h-2.1v11.94h10.34v-11.94h-2.1v-5.89c5.57-.67,10.73-3.16,14.76-7.19ZM31.76,50.73c0-5.16,2.01-10.01,5.66-13.65,3.76-3.76,8.71-5.65,13.65-5.65s9.89,1.88,13.65,5.65c7.53,7.53,7.53,19.78,0,27.31-3.65,3.65-8.5,5.66-13.65,5.66s-10.01-2.01-13.65-5.66c-3.65-3.65-5.66-8.5-5.66-13.65Z"/></g></g></g></svg>