<svg width="16" height="16" viewBox="0 0 16 16" fill="none" xmlns="http://www.w3.org/2000/svg">
<path d="M14.1378 2.98637C14.7152 3.56378 14.7247 4.49698 14.1591 5.08597L8.74224 10.7271C8.46695 11.0137 8.08913 11.1795 7.69176 11.1878L5.41644 11.2355L5.46449 8.94497C5.47264 8.55664 5.63111 8.1866 5.90655 7.91274L11.4436 2.40735C12.0298 1.82442 12.9773 1.82578 13.5619 2.41038L14.1378 2.98637Z" fill="#4CAF50"/>
<path opacity="0.3" d="M8.59967 1.33331C8.96786 1.33331 9.26634 1.63179 9.26634 1.99998C9.26634 2.36817 8.96786 2.66665 8.59967 2.66665H3.99967C3.26329 2.66665 2.66634 3.2636 2.66634 3.99998V12C2.66634 12.7364 3.26329 13.3333 3.99967 13.3333H11.9997C12.7361 13.3333 13.333 12.7364 13.333 12V8.66665C13.333 8.29846 13.6315 7.99998 13.9997 7.99998C14.3679 7.99998 14.6663 8.29846 14.6663 8.66665V12C14.6663 13.4727 13.4724 14.6666 11.9997 14.6666H3.99967C2.52692 14.6666 1.33301 13.4727 1.33301 12V3.99998C1.33301 2.52722 2.52692 1.33331 3.99967 1.33331H8.59967Z" fill="#4CAF50"/>
</svg>
