<svg width="24" height="24" viewBox="0 0 24 24" fill="none" xmlns="http://www.w3.org/2000/svg">
<path fill-rule="evenodd" clip-rule="evenodd" d="M21.8701 11.5C21.2301 10.39 17.7101 4.81999 11.7301 4.99999C6.20007 5.13999 3.00007 9.99999 2.13007 11.5C1.95144 11.8094 1.95144 12.1906 2.13007 12.5C2.76007 13.59 6.13007 19 12.0201 19H12.2701C17.8001 18.86 21.0101 14 21.8701 12.5C22.0487 12.1906 22.0487 11.8094 21.8701 11.5ZM12.0001 15.5C10.0671 15.5 8.50007 13.933 8.50007 12C8.50007 10.067 10.0671 8.49999 12.0001 8.49999C13.9331 8.49999 15.5001 10.067 15.5001 12C15.5001 13.933 13.9331 15.5 12.0001 15.5ZM12.0001 13.5C12.8285 13.5 13.5001 12.8284 13.5001 12C13.5001 11.1716 12.8285 10.5 12.0001 10.5C11.1716 10.5 10.5001 11.1716 10.5001 12C10.5001 12.8284 11.1716 13.5 12.0001 13.5Z" fill="#637381"/>
</svg>
