<svg width="20" height="20" viewBox="0 0 20 20" fill="none" xmlns="http://www.w3.org/2000/svg">
<path d="M13.8243 7.9165H12.4993V3.74984C12.4993 3.2915 12.1243 2.9165 11.666 2.9165H8.33268C7.87435 2.9165 7.49935 3.2915 7.49935 3.74984V7.9165H6.17435C5.43268 7.9165 5.05768 8.8165 5.58268 9.3415L9.40768 13.1665C9.73268 13.4915 10.2577 13.4915 10.5827 13.1665L14.4077 9.3415C14.9327 8.8165 14.566 7.9165 13.8243 7.9165ZM4.16602 16.2498C4.16602 16.7082 4.54102 17.0832 4.99935 17.0832H14.9993C15.4577 17.0832 15.8327 16.7082 15.8327 16.2498C15.8327 15.7915 15.4577 15.4165 14.9993 15.4165H4.99935C4.54102 15.4165 4.16602 15.7915 4.16602 16.2498Z" fill="#01A3FF"/>
</svg>
