<svg width="16" height="17" viewBox="0 0 16 17" fill="none" xmlns="http://www.w3.org/2000/svg">
<path d="M12 13.4484H4C3.63333 13.4484 3.33333 13.1484 3.33333 12.7817V4.78174C3.33333 4.41507 3.63333 4.11507 4 4.11507H7.33333C7.7 4.11507 8 3.81507 8 3.4484C8 3.08174 7.7 2.78174 7.33333 2.78174H3.33333C2.59333 2.78174 2 3.38174 2 4.11507V13.4484C2 14.1817 2.6 14.7817 3.33333 14.7817H12.6667C13.4 14.7817 14 14.1817 14 13.4484V9.44841C14 9.08174 13.7 8.78174 13.3333 8.78174C12.9667 8.78174 12.6667 9.08174 12.6667 9.44841V12.7817C12.6667 13.1484 12.3667 13.4484 12 13.4484ZM9.33333 3.4484C9.33333 3.81507 9.63333 4.11507 10 4.11507H11.7267L5.64 10.2017C5.38 10.4617 5.38 10.8817 5.64 11.1417C5.9 11.4017 6.32 11.4017 6.58 11.1417L12.6667 5.05507V6.78174C12.6667 7.14841 12.9667 7.44841 13.3333 7.44841C13.7 7.44841 14 7.14841 14 6.78174V3.4484C14 3.08174 13.7 2.78174 13.3333 2.78174H10C9.63333 2.78174 9.33333 3.08174 9.33333 3.4484Z" fill="#18AF4A"/>
</svg>
